<?xml version="1.0" encoding="UTF-8"?>
<svg version="1.1" xmlns="http://www.w3.org/2000/svg" width="1050" height="600">
<path d="M0 0 C346.5 0 693 0 1050 0 C1050 198 1050 396 1050 600 C703.5 600 357 600 0 600 C0 402 0 204 0 0 Z " fill="#FEFEFE" transform="translate(0,0)"/>
<path d="M0 0 C32.01 0 64.02 0 97 0 C97 9.24 97 18.48 97 28 C85.78 28 74.56 28 63 28 C63 64.3 63 100.6 63 138 C53.76 138 44.52 138 35 138 C35 101.7 35 65.4 35 28 C23.45 28 11.9 28 0 28 C0 18.76 0 9.52 0 0 Z " fill="#FF0505" transform="translate(898,232)"/>
<path d="M0 0 C8.91 0 17.82 0 27 0 C27 45.54 27 91.08 27 138 C18.09 138 9.18 138 0 138 C0 92.46 0 46.92 0 0 Z " fill="#FF0000" transform="translate(852,232)"/>
<path d="M0 0 C0.66 0 1.32 0 2 0 C3.16963529 2.33927057 3.12330589 3.69676648 3.12025452 6.30264282 C3.12162918 7.20570663 3.12300385 8.10877045 3.12442017 9.03919983 C3.12082489 10.0325383 3.11722961 11.02587677 3.11352539 12.04931641 C3.11367142 13.09324051 3.11381744 14.13716461 3.1139679 15.21272278 C3.11326922 18.67569023 3.10547891 22.1386044 3.09765625 25.6015625 C3.09579191 27.99767019 3.09436808 30.39377827 3.09336853 32.78988647 C3.08954461 39.10608975 3.07971538 45.42227014 3.06866455 51.73846436 C3.05844774 58.17980642 3.05387033 64.62115217 3.04882812 71.0625 C3.03809302 83.70834311 3.02120945 96.35417034 3 109 C2.01 108.67 1.02 108.34 0 108 C0 72.36 0 36.72 0 0 Z " fill="#D6D6D6" transform="translate(159,319)"/>
<path d="M0 0 C0.66 0 1.32 0 2 0 C3.48203779 2.96407559 3.11920826 5.62079165 3.11352539 8.92822266 C3.11367142 9.64052536 3.11381744 10.35282806 3.1139679 11.0867157 C3.11327011 13.44586206 3.10548397 15.80492989 3.09765625 18.1640625 C3.0957916 19.79788164 3.09436792 21.43170134 3.09336853 23.06552124 C3.08954709 27.3694818 3.07971998 31.67340871 3.06866455 35.97735596 C3.05844242 40.36771184 3.05386919 44.75807315 3.04882812 49.1484375 C3.03809739 57.76564046 3.02102543 66.38281604 3 75 C2.01 74.67 1.02 74.34 0 74 C0 49.58 0 25.16 0 0 Z " fill="#D5D5D5" transform="translate(159,241)"/>
<path d="M0 0 C0.33 0 0.66 0 1 0 C1 27.39 1 54.78 1 83 C0.67 81.68 0.34 80.36 0 79 C-0.66 79 -1.32 79 -2 79 C-2.0246501 73.89136104 -2.04283607 68.78275641 -2.05493164 63.67407227 C-2.05997204 61.93480832 -2.0668043 60.19554864 -2.07543945 58.45629883 C-2.08751792 55.96174063 -2.09323108 53.46723827 -2.09765625 50.97265625 C-2.10281754 50.19036148 -2.10797882 49.40806671 -2.11329651 48.60206604 C-2.11349226 46.73432886 -2.06199694 44.86670796 -2 43 C-1.505 42.505 -1.505 42.505 -1 42 C-0.83958807 38.89914779 -0.74036598 35.81812421 -0.68359375 32.71484375 C-0.6524221 31.31861534 -0.6524221 31.31861534 -0.62062073 29.8941803 C-0.55502069 26.90869818 -0.49619198 23.92312516 -0.4375 20.9375 C-0.3943247 18.91861024 -0.35071075 16.8997298 -0.30664062 14.88085938 C-0.19932871 9.92066703 -0.09809112 4.96038291 0 0 Z " fill="#E3E3E3" transform="translate(242,177)"/>
<path d="M0 0 C0.99 0.33 1.98 0.66 3 1 C3 17.5 3 34 3 51 C2.01 51 1.02 51 0 51 C0 34.17 0 17.34 0 0 Z " fill="#DCDCDC" transform="translate(159,179)"/>
<path d="M0 0 C0.66 0 1.32 0 2 0 C1.67 1.32 1.34 2.64 1 4 C-36.62 4 -74.24 4 -113 4 C-113 3.67 -113 3.34 -113 3 C-101.03589697 1.73583489 -89.08909283 1.87218865 -77.07421875 1.90234375 C-74.87319471 1.90421221 -72.67217024 1.90563409 -70.47114563 1.90663147 C-64.71899233 1.91042298 -58.96686487 1.92022397 -53.21472168 1.93133545 C-47.32869821 1.94162249 -41.44267052 1.94614462 -35.55664062 1.95117188 C-24.03774916 1.96184972 -12.51887674 1.978885 -1 2 C-0.67 1.34 -0.34 0.68 0 0 Z " fill="#F4F4F4" transform="translate(338,447)"/>
<path d="M0 0 C0.33 0 0.66 0 1 0 C1.14490486 6.23977297 1.28719526 12.47959862 1.42724609 18.71948242 C1.47506094 20.83440694 1.52354348 22.94931648 1.57275391 25.06420898 C1.86653725 37.71188174 2.0774106 50.34874309 2 63 C0.515 63.495 0.515 63.495 -1 64 C-1.0231271 55.80309439 -1.04091696 47.60620232 -1.05181217 39.40927219 C-1.0570402 35.60348423 -1.06413638 31.79771852 -1.07543945 27.99194336 C-1.0862712 24.32207456 -1.09227744 20.65222722 -1.09487724 16.98234367 C-1.09673097 15.57925008 -1.1003506 14.17615771 -1.10573006 12.7730732 C-1.11294419 10.8143032 -1.11340809 8.8555118 -1.11352539 6.89672852 C-1.115746 5.77976089 -1.11796661 4.66279327 -1.12025452 3.51197815 C-1 1 -1 1 0 0 Z " fill="#E1E1E1" transform="translate(89,282)"/>
<path d="M0 0 C0.66 0 1.32 0 2 0 C2 8.58 2 17.16 2 26 C-1 23 -1 23 -1.35644531 20.65576172 C-1.34709961 19.75615723 -1.33775391 18.85655273 -1.328125 17.9296875 C-1.32296875 16.95128906 -1.3178125 15.97289062 -1.3125 14.96484375 C-1.291875 13.94519531 -1.27125 12.92554688 -1.25 11.875 C-1.24484375 10.84761719 -1.2396875 9.82023437 -1.234375 8.76171875 C-1.15397613 1.15397613 -1.15397613 1.15397613 0 0 Z " fill="#D8D8D8" transform="translate(287,366)"/>
<path d="M0 0 C4.29 0 8.58 0 13 0 C13 0.99 13 1.98 13 3 C10.03 3 7.06 3 4 3 C3.01 4.98 2.02 6.96 1 9 C0.67 9 0.34 9 0 9 C0 6.03 0 3.06 0 0 Z " fill="#D4D4D4" transform="translate(176,424)"/>
<path d="M0 0 C-1.34128135 5.53278558 -5.55165 8.78421365 -10 12 C-10.66 12 -11.32 12 -12 12 C-10.53033642 8.60140297 -8.61962486 6.35036291 -6 3.75 C-5.29875 3.04359375 -4.5975 2.3371875 -3.875 1.609375 C-2 0 -2 0 0 0 Z " fill="#DFDFDF" transform="translate(264,245)"/>
<path d="M0 0 C0.66 0 1.32 0 2 0 C2 2.97 2 5.94 2 9 C1.34 9 0.68 9 0 9 C-1.36623674 6.26752652 -1.128426 4.01801098 -1 1 C-0.67 0.67 -0.34 0.34 0 0 Z " fill="#D9D9D9" transform="translate(287,353)"/>
<path d="M0 0 C3.96 0 7.92 0 12 0 C12 0.66 12 1.32 12 2 C8.7 2.33 5.4 2.66 2 3 C1.34 2.01 0.68 1.02 0 0 Z " fill="#E1E1E1" transform="translate(277,238)"/>
<path d="M0 0 C0.556875 0.226875 1.11375 0.45375 1.6875 0.6875 C1.048125 0.97625 0.40875 1.265 -0.25 1.5625 C-2.46456079 2.51573451 -2.46456079 2.51573451 -3.3125 4.6875 C-4.6325 4.6875 -5.9525 4.6875 -7.3125 4.6875 C-7.3125 4.0275 -7.3125 3.3675 -7.3125 2.6875 C-3.15982824 -0.42700382 -3.15982824 -0.42700382 0 0 Z M-12.3125 4.6875 C-10.6625 4.6875 -9.0125 4.6875 -7.3125 4.6875 C-7.3125 5.0175 -7.3125 5.3475 -7.3125 5.6875 C-8.9625 5.6875 -10.6125 5.6875 -12.3125 5.6875 C-12.3125 5.3575 -12.3125 5.0275 -12.3125 4.6875 Z " fill="#EEEEEE" transform="translate(130.3125,257.3125)"/>
<path d="M0 0 C1.65 0 3.3 0 5 0 C3 3 3 3 1.0546875 3.51171875 C0.33539063 3.56972656 -0.38390625 3.62773437 -1.125 3.6875 C-3.043125 3.8421875 -3.043125 3.8421875 -5 4 C-4.67 3.01 -4.34 2.02 -4 1 C-2.02 1.495 -2.02 1.495 0 2 C0 1.34 0 0.68 0 0 Z " fill="#EAEAEA" transform="translate(166,162)"/>
<path d="M0 0 C1.32 0.33 2.64 0.66 4 1 C4 1.66 4 2.32 4 3 C2.68 3 1.36 3 0 3 C0 2.01 0 1.02 0 0 Z M-5 3 C-3.35 3 -1.7 3 0 3 C-0.99 4.485 -0.99 4.485 -2 6 C-2.99 5.67 -3.98 5.34 -5 5 C-5 4.34 -5 3.68 -5 3 Z " fill="#E8E8E8" transform="translate(181,154)"/>
<path d="M0 0 C0.66 0 1.32 0 2 0 C2 2.97 2 5.94 2 9 C1.01 9 0.02 9 -1 9 C-0.67 6.03 -0.34 3.06 0 0 Z " fill="#E1E1E1" transform="translate(59,415)"/>
<path d="M0 0 C0 0.66 0 1.32 0 2 C-0.928125 2.185625 -0.928125 2.185625 -1.875 2.375 C-4.19120832 2.87197356 -4.19120832 2.87197356 -6 5 C-6.99 5 -7.98 5 -9 5 C-9 4.01 -9 3.02 -9 2 C-5.62902617 0.50178941 -3.79557881 0 0 0 Z " fill="#E4E4E4" transform="translate(116,265)"/>
<path d="M0 0 C0.99 0 1.98 0 3 0 C3.33 0.99 3.66 1.98 4 3 C-0.75 5.875 -0.75 5.875 -3 7 C-3 5.68 -3 4.36 -3 3 C-2.01 3 -1.02 3 0 3 C0 2.01 0 1.02 0 0 Z " fill="#EBEBEB" transform="translate(319,422)"/>
<path d="M0 0 C1.98 0.495 1.98 0.495 4 1 C2.35 1.66 0.7 2.32 -1 3 C-0.67 2.01 -0.34 1.02 0 0 Z M-6 3 C-4.35 3 -2.7 3 -1 3 C-1.33 3.99 -1.66 4.98 -2 6 C-3.32 5.67 -4.64 5.34 -6 5 C-6 4.34 -6 3.68 -6 3 Z " fill="#EAEAEA" transform="translate(192,149)"/>
<path d="M0 0 C1.125 1.5625 1.125 1.5625 2 4 C1.125 7.75 1.125 7.75 0 11 C-0.33 11 -0.66 11 -1 11 C-1.02688151 9.35425434 -1.04634123 7.70838587 -1.0625 6.0625 C-1.07410156 5.14597656 -1.08570313 4.22945313 -1.09765625 3.28515625 C-1 1 -1 1 0 0 Z " fill="#E7E7E7" transform="translate(201,424)"/>
<path d="M0 0 C0.33 0.66 0.66 1.32 1 2 C1.99 2.33 2.98 2.66 4 3 C3.01 4.98 2.02 6.96 1 9 C0.67 9 0.34 9 0 9 C0 6.03 0 3.06 0 0 Z " fill="#E4E4E4" transform="translate(176,424)"/>
<path d="M0 0 C0.66 0 1.32 0 2 0 C1.67 1.32 1.34 2.64 1 4 C-1.31 4 -3.62 4 -6 4 C-5.67 3.34 -5.34 2.68 -5 2 C-3.68 2 -2.36 2 -1 2 C-0.67 1.34 -0.34 0.68 0 0 Z " fill="#EBEBEB" transform="translate(338,447)"/>
<path d="M0 0 C2.96175123 0.61277612 4.38058783 1.25372522 7 3 C7 3.66 7 4.32 7 5 C6.34 5 5.68 5 5 5 C5 4.34 5 3.68 5 3 C3.35 3 1.7 3 0 3 C0 2.01 0 1.02 0 0 Z " fill="#E3E3E3" transform="translate(260,333)"/>
</svg>
