<?xml version="1.0" encoding="UTF-8"?>
<svg version="1.1" xmlns="http://www.w3.org/2000/svg" width="661" height="377">
<path d="M0 0 C1.59424805 0.71736328 1.59424805 0.71736328 3.22070312 1.44921875 C8.76295476 4.00398559 13.61096529 6.40157725 17.9375 10.75 C18.85035644 13.48856931 19.06051573 15.06538307 19.05534363 17.88023376 C19.05702042 19.1398719 19.05702042 19.1398719 19.05873108 20.42495728 C19.05322487 21.80196304 19.05322487 21.80196304 19.04760742 23.20678711 C19.04815009 25.21581524 19.04873709 27.22484336 19.04936218 29.23387146 C19.04793402 30.29998594 19.04650585 31.36610043 19.04503441 32.46452141 C19.04152165 38.09814128 19.06730178 43.73166039 19.08789062 49.36523438 C19.11225624 56.53971729 19.12789904 63.71390918 19.11254883 70.88842773 C19.10091297 76.68226571 19.11821362 82.47538091 19.15499306 88.26910591 C19.16362861 90.47911589 19.16149764 92.68919471 19.148489 94.89918327 C19.1316622 97.98820451 19.15171873 101.07493234 19.18041992 104.16381836 C19.16662796 105.07979797 19.152836 105.99577759 19.1386261 106.93951416 C19.18230699 109.35816672 19.27259145 111.42386452 19.9375 113.75 C22.70363288 116.38179077 22.70363288 116.38179077 25.9375 117.75 C26.61554688 118.08572021 27.29359375 118.42144043 27.9921875 118.76733398 C28.59289062 119.00782471 29.19359375 119.24831543 29.8125 119.49609375 C30.48796875 119.77646484 31.1634375 120.05683594 31.859375 120.34570312 C33.24343645 120.90635208 34.62885863 121.46365359 36.015625 122.01757812 C41.4805691 124.29637638 46.61896947 126.70016455 49.08935547 132.41430664 C50.06588437 136.25492679 50.18974231 139.84261442 50.1328125 143.7734375 C50.1299826 144.51961334 50.12715271 145.26578918 50.12423706 146.03457642 C50.11311687 148.39821988 50.08802821 150.76147268 50.0625 153.125 C50.05245962 154.73567158 50.04333562 156.34634915 50.03515625 157.95703125 C50.0132044 161.88816944 49.97873185 165.81901867 49.9375 169.75 C50.25203125 169.06292969 50.5665625 168.37585938 50.890625 167.66796875 C51.31859375 166.76691406 51.7465625 165.86585938 52.1875 164.9375 C52.60515625 164.04417969 53.0228125 163.15085938 53.453125 162.23046875 C55.02651363 159.60125354 56.33618575 158.33009518 58.9375 156.75 C61.6875 156.125 61.6875 156.125 64.9375 156.75 C70.39363508 160.4155116 76.02246804 165.40545799 77.41796875 172.03125 C77.86575773 177.50610395 76.81221861 180.52825291 73.4375 184.875 C72.29359115 186.18686372 71.13421511 187.4861223 69.9375 188.75 C70.51757812 188.71519531 71.09765625 188.68039062 71.6953125 188.64453125 C76.88738011 188.46460811 80.51648328 188.69739322 84.9375 191.75 C86.94379748 194.27405166 87.96775471 195.69108507 87.875 198.9375 C86.60907922 201.38494685 85.49009987 201.75048324 82.9375 202.75 C80.30483818 202.98047829 80.30483818 202.98047829 77.25021362 202.95254517 C75.50765289 202.94404793 75.50765289 202.94404793 73.72988892 202.93537903 C72.45761444 202.91883774 71.18533997 202.90229645 69.87451172 202.88525391 C68.51664871 202.87482017 67.15877852 202.86528636 65.80090332 202.85658264 C62.09943512 202.83034666 58.39818795 202.79161225 54.69685507 202.75085878 C50.77250241 202.70993141 46.84806166 202.68094045 42.9236145 202.65072632 C35.43254476 202.59132468 27.94160364 202.52192216 20.45065796 202.44865549 C9.68185474 202.34369194 -1.0870634 202.25229832 -11.85599899 202.1620903 C-13.06273297 202.15197446 -13.06273297 202.15197446 -14.29384542 202.14165425 C-15.91204343 202.12809244 -17.53024167 202.11455638 -19.14844012 202.10104632 C-23.96051943 202.06055593 -28.77255981 202.01700112 -33.58459067 201.97112632 C-48.64065555 201.82835288 -63.69225716 201.72014037 -78.74902344 201.81542969 C-79.93850775 201.82168806 -81.12799206 201.82794643 -82.35352135 201.83439445 C-87.77603625 201.86394958 -93.19756688 201.90792603 -98.61965942 201.98184204 C-100.48194991 201.99545592 -102.34424435 202.00854368 -104.20654297 202.02099609 C-105.02808239 202.03846767 -105.84962181 202.05593925 -106.69605637 202.07394028 C-111.54875243 202.08811667 -114.87019026 201.47412953 -119.0625 198.75 C-120.1875 196.3125 -120.1875 196.3125 -120.0625 193.75 C-117.86524211 190.40634669 -115.55404322 189.45033869 -111.8125 188.5 C-109.95625 188.12875 -109.95625 188.12875 -108.0625 187.75 C-109.3 186.76 -109.3 186.76 -110.5625 185.75 C-113.09088439 182.71593874 -113.99705247 180.99684677 -113.74609375 177.01953125 C-112.27965588 172.15095751 -108.9659279 167.93540604 -105.0625 164.75 C-101.96875 164.3125 -101.96875 164.3125 -99.0625 164.75 C-96.1875 167.25 -96.1875 167.25 -94.0625 169.75 C-93.22516073 160.23584766 -92.9421996 150.81773976 -93.01790047 141.27369499 C-93.03563474 138.96505475 -93.04569336 136.65648665 -93.05381775 134.34779358 C-93.07799566 127.79600246 -93.11409691 121.24431149 -93.15844727 114.69262695 C-93.18524569 110.65648077 -93.20227002 106.62038789 -93.21331596 102.58416939 C-93.21950359 101.05597494 -93.22948099 99.52779077 -93.24339485 97.99964714 C-93.26264501 95.87070749 -93.26951011 93.74205216 -93.27368164 91.61303711 C-93.28113907 90.40505966 -93.2885965 89.19708221 -93.29627991 87.95249939 C-93.06320621 84.75967424 -92.52035825 82.58531761 -91.0625 79.75 C-89.0859375 78.3359375 -89.0859375 78.3359375 -86.4375 77.125 C-85.38304687 76.63 -84.32859375 76.135 -83.2421875 75.625 C-81.85010035 74.99746046 -80.45669272 74.37284763 -79.0625 73.75 C-75.98460802 72.37080071 -72.90794644 70.98912044 -69.83447266 69.60009766 C-67.67452066 68.62633031 -65.51017442 67.66224473 -63.34130859 66.70849609 C-62.33148926 66.25555176 -61.32166992 65.80260742 -60.28125 65.3359375 C-58.9190332 64.73338135 -58.9190332 64.73338135 -57.52929688 64.11865234 C-54.62391449 62.5066597 -52.99382567 61.49002756 -51.0625 58.75 C-49.67662214 52.37590442 -49.95996249 45.69028022 -50.02734375 39.19921875 C-50.02363622 37.4316348 -50.01771325 35.66405434 -50.00976562 33.89648438 C-49.99916013 31.15262045 -50.00036147 28.41137978 -50.03833008 25.66772461 C-50.07140882 22.98929879 -50.05392252 20.3151321 -50.02734375 17.63671875 C-50.04989731 16.81894455 -50.07245087 16.00117035 -50.09568787 15.15861511 C-50.04550734 12.77749832 -49.90746096 10.97975071 -49.0625 8.75 C-46.66040182 6.49050651 -44.03675273 5.13291333 -41.0625 3.75 C-40.20293701 3.2952832 -39.34337402 2.84056641 -38.45776367 2.37207031 C-37.72275635 2.02756836 -36.98774902 1.68306641 -36.23046875 1.328125 C-35.41255859 0.94269531 -34.59464844 0.55726562 -33.75195312 0.16015625 C-32.92630859 -0.22269531 -32.10066406 -0.60554688 -31.25 -1 C-30.40501953 -1.39832031 -29.56003906 -1.79664062 -28.68945312 -2.20703125 C-17.16787984 -7.60633883 -11.29809569 -5.26740189 0 0 Z M-24.375 10.125 C-26.91622198 11.58528486 -29.16197096 12.78459859 -31.9375 13.75 C-34.98615142 15.18465949 -35.63304607 16.70372158 -37.0625 19.75 C-37.33847838 22.61832342 -37.45276063 25.26269216 -37.41894531 28.12695312 C-37.42096136 28.96423982 -37.42297741 29.80152651 -37.42505455 30.66418552 C-37.42800395 33.45342216 -37.40940646 36.24208146 -37.390625 39.03125 C-37.38797889 41.01264829 -37.38657104 42.99404857 -37.38632202 44.97544861 C-37.38151683 50.29858686 -37.35742741 55.6214733 -37.32880402 60.94453049 C-37.30710646 65.34348353 -37.2955656 69.74243972 -37.28389931 74.14142895 C-37.24531623 88.34453833 -37.16222967 102.54720277 -37.0625 116.75 C-37.05586838 117.72161827 -37.04923676 118.69323654 -37.04240417 119.69429779 C-36.96179608 131.45054504 -36.85723592 143.20623205 -36.71372986 154.96188354 C-36.68748319 157.18892616 -36.66428952 159.41598372 -36.64172363 161.64306641 C-36.5993353 165.71931882 -36.5394782 169.79510627 -36.4765625 173.87109375 C-36.46499115 175.06218246 -36.4534198 176.25327118 -36.4414978 177.48045349 C-36.42164825 178.55223343 -36.40179871 179.62401337 -36.38134766 180.72827148 C-36.36802399 181.65703598 -36.35470032 182.58580048 -36.3409729 183.54270935 C-36.2656888 185.95550346 -36.2656888 185.95550346 -34.0625 187.75 C-33.7325 185.44 -33.4025 183.13 -33.0625 180.75 C-31.62524129 180.58126522 -30.18768162 180.41509263 -28.75 180.25 C-27.94949219 180.1571875 -27.14898437 180.064375 -26.32421875 179.96875 C-24.0625 179.75 -24.0625 179.75 -21.0625 179.75 C-20.794375 180.3275 -20.52625 180.905 -20.25 181.5 C-19.04530141 183.7825868 -17.65451885 185.7237942 -16.0625 187.75 C-15.794375 186.656875 -15.52625 185.56375 -15.25 184.4375 C-14.18586261 181.13307337 -13.71595336 179.80039578 -11.0625 177.75 C-11.7225 177.440625 -12.3825 177.13125 -13.0625 176.8125 C-15.86379767 173.92366178 -15.50247945 171.69748546 -15.49609375 167.80859375 C-15.0625 165.75 -15.0625 165.75 -12.0625 163.75 C-10.125 163.4140625 -10.125 163.4140625 -8.0625 163.375 C-7.381875 163.34664062 -6.70125 163.31828125 -6 163.2890625 C-4.0625 163.75 -4.0625 163.75 -2.34765625 165.171875 C-0.37849557 169.12216695 -0.56829438 173.01716814 -0.5 177.375 C-0.46561999 179.09654712 -0.42304665 180.81795606 -0.37109375 182.5390625 C-0.35876709 183.29912598 -0.34644043 184.05918945 -0.33374023 184.84228516 C-0.22323019 186.98962331 -0.22323019 186.98962331 1.9375 188.75 C3.23187595 187.68013147 3.23187595 187.68013147 3.05775452 185.16209412 C3.05553391 184.00959671 3.05331329 182.8570993 3.05102539 181.66967773 C3.05094986 180.36840439 3.05087433 179.06713104 3.05079651 177.72642517 C3.04568909 176.29548098 3.04047308 174.86453718 3.03515625 173.43359375 C3.03329203 171.9777074 3.03186815 170.52182043 3.03086853 169.06593323 C3.02704365 165.22720621 3.01721364 161.38851681 3.00616455 157.54980469 C2.99594978 153.63542184 2.99137077 149.72103294 2.98632812 145.80664062 C2.97559134 138.12107657 2.95851529 130.43554355 2.9375 122.75 C1.52710192 122.89325586 0.11710237 123.04043784 -1.29272461 123.18920898 C-2.07796005 123.27073715 -2.8631955 123.35226532 -3.67222595 123.43626404 C-8.12172799 124.02028444 -12.42411715 125.22949803 -16.75585938 126.37695312 C-22.6194841 127.84960221 -28.19194179 128.70685274 -34.0625 126.75 C-34.55175556 121.3681888 -34.55175556 121.3681888 -32.40234375 118.65234375 C-29.72529237 116.47584288 -27.71825508 115.83470712 -24.375 115.0625 C-20.92230964 114.47847682 -20.92230964 114.47847682 -18.0625 112.75 C-17.93210657 110.31638332 -17.86585182 107.90961884 -17.84130859 105.47412109 C-17.82404976 104.32962997 -17.82404976 104.32962997 -17.80644226 103.16201782 C-17.76951264 100.61586619 -17.73996547 98.06969068 -17.7109375 95.5234375 C-17.68779669 93.74150273 -17.66440617 91.95957119 -17.64077759 90.17764282 C-17.59216186 86.41973064 -17.54730014 82.66179567 -17.50488281 78.90380859 C-17.45090508 74.15557092 -17.38676719 69.40753602 -17.31983566 64.65946579 C-17.05689987 45.65855301 -16.81983567 26.72483023 -18.0625 7.75 C-20.73015948 7.75 -22.07544201 8.78777804 -24.375 10.125 Z M-53.0625 77.75 C-54.52313143 78.53741859 -55.98093173 79.3300905 -57.4375 80.125 C-58.24960938 80.56585938 -59.06171875 81.00671875 -59.8984375 81.4609375 C-62.48540876 83.00191316 -63.83710203 83.97919458 -64.6953125 86.9140625 C-64.85773438 87.72617188 -65.02015625 88.53828125 -65.1875 89.375 C-65.35507813 90.19226563 -65.52265625 91.00953125 -65.6953125 91.8515625 C-65.81648438 92.47804688 -65.93765625 93.10453125 -66.0625 93.75 C-70.62538469 93.96222719 -72.61257426 93.52997029 -77.0625 91.75 C-77.0625 123.43 -77.0625 155.11 -77.0625 187.75 C-74.50526771 189.02861615 -72.69512898 188.86336609 -69.8359375 188.84765625 C-68.8046875 188.84443359 -67.7734375 188.84121094 -66.7109375 188.83789062 C-65.63070312 188.82951172 -64.55046875 188.82113281 -63.4375 188.8125 C-62.34953125 188.80798828 -61.2615625 188.80347656 -60.140625 188.79882812 C-57.44786211 188.78701776 -54.75520812 188.77054778 -52.0625 188.75 C-51.25169563 182.35645739 -50.91395173 176.12874914 -50.91723633 169.68798828 C-50.91387772 168.72588943 -50.9105191 167.76379059 -50.90705872 166.77253723 C-50.89762998 163.62178222 -50.89561043 160.4710807 -50.89453125 157.3203125 C-50.89131563 155.12075784 -50.88795133 152.92120339 -50.88444519 150.72164917 C-50.87847606 146.12725325 -50.87660327 141.53287609 -50.87719727 136.93847656 C-50.87729936 131.0436272 -50.86358903 125.14889701 -50.84642506 119.254076 C-50.83533117 114.71944623 -50.83327717 110.18484566 -50.83380699 105.6502037 C-50.83262517 103.47563131 -50.82819211 101.3010582 -50.82047462 99.12649918 C-50.81071731 96.09612754 -50.81353469 93.06602008 -50.81958008 90.03564453 C-50.81396057 89.13484665 -50.80834106 88.23404877 -50.80255127 87.30595398 C-50.80674576 86.48183517 -50.81094025 85.65771637 -50.81526184 84.80862427 C-50.81444469 83.73521632 -50.81444469 83.73521632 -50.81361103 82.64012337 C-50.96470141 80.41859341 -50.96470141 80.41859341 -53.0625 77.75 Z M48.9375 174.75 C48.91063447 176.72909398 48.89116625 178.70828971 48.875 180.6875 C48.86339844 181.78964844 48.85179687 182.89179688 48.83984375 184.02734375 C48.62487429 186.66447634 48.62487429 186.66447634 49.9375 187.75 C52.60808851 187.89115161 55.26182238 187.79247107 57.9375 187.75 C57.52757812 187.31429687 57.11765625 186.87859375 56.6953125 186.4296875 C53.32659998 182.70637366 51.15509521 179.74214035 49.9375 174.75 C49.6075 174.75 49.2775 174.75 48.9375 174.75 Z " fill="#FAFDF8" transform="translate(145.0625,91.25)"/>
<path d="M0 0 C4.46165577 -0.05016131 8.92315374 -0.08607179 13.38500977 -0.10986328 C14.89675767 -0.11980161 16.40848699 -0.13335698 17.92016602 -0.15087891 C40.84637346 -0.40958818 40.84637346 -0.40958818 51 4 C51 4.66 51 5.32 51 6 C51.763125 6.165 52.52625 6.33 53.3125 6.5 C56.59627979 8.33280732 57.38212644 10.19223016 58.4921875 13.7265625 C60.16256258 21.20470326 59.10876933 27.48918091 55 34 C51.95559964 37.42807821 48.40410331 39.69067199 44 41 C43.01 41 42.02 41 41 41 C41 41.66 41 42.32 41 43 C41.721875 43.0825 42.44375 43.165 43.1875 43.25 C47.62807773 44.43415406 50.2421818 46.78392467 52.66015625 50.6640625 C53.12292969 51.64117187 53.58570313 52.61828125 54.0625 53.625 C54.56652344 54.6871875 55.07054687 55.749375 55.58984375 56.84375 C57.91877005 62.05641606 60.12692057 67.30383842 61.88671875 72.73828125 C63.42134452 77.64738778 63.42134452 77.64738778 66.80859375 81.29296875 C68.92567184 82.2544521 68.92567184 82.2544521 72 83 C72 84.32 72 85.64 72 87 C66.36759786 88.40810054 61.20497118 88.80566255 55.75 86.8125 C46.4216497 80.66426912 42.6664594 67.42489712 39.0390625 57.32421875 C37.14985434 52.22335671 35.64431557 48.16208719 31 45 C27.37 44.34 23.74 43.68 20 43 C20.33 55.54 20.66 68.08 21 81 C22.32 81.66 23.64 82.32 25 83 C24.67 84.32 24.34 85.64 24 87 C16.08 87 8.16 87 0 87 C0.33 85.35 0.66 83.7 1 82 C1.66 82 2.32 82 3 82 C3 56.59 3 31.18 3 5 C2.34 5 1.68 5 1 5 C0.67 3.35 0.34 1.7 0 0 Z M20 4 C20 15.55 20 27.1 20 39 C32.42779227 39.37358889 32.42779227 39.37358889 41.9375 33.625 C44.93486897 29.61851681 44.74228527 25.09741496 44.5546875 20.26953125 C43.4970252 14.03528237 40.33888151 9.78200496 35.375 6 C29.85232279 3.67466223 26.39174632 4 20 4 Z " fill="#F2FBED" transform="translate(240,153)"/>
<path d="M0 0 C19.8 0 39.6 0 60 0 C60.66 6.27 61.32 12.54 62 19 C60.35 18.67 58.7 18.34 57 18 C55 15 55 15 55 12 C54.34 12 53.68 12 53 12 C52.484375 11.401875 51.96875 10.80375 51.4375 10.1875 C45.2618283 4.64523053 36.86219843 4.50698271 28.9375 4.3125 C25.658125 4.209375 22.37875 4.10625 19 4 C19 15.22 19 26.44 19 38 C24.506875 37.87625 24.506875 37.87625 30.125 37.75 C31.2711377 37.73420898 32.41727539 37.71841797 33.59814453 37.70214844 C39.64024765 37.50085095 43.42806859 37.08425873 48 33 C49.38868516 30.89960669 49.38868516 30.89960669 50 29 C51.32 29 52.64 29 54 29 C54 36.26 54 43.52 54 51 C52.35 50.67 50.7 50.34 49 50 C48.731875 49.38125 48.46375 48.7625 48.1875 48.125 C46.56118293 45.21474839 44.4139944 44.6844445 41.3684082 43.60644531 C37.254373 42.5530216 33.21924053 42.68611722 29 42.8125 C27.69482422 42.83280273 27.69482422 42.83280273 26.36328125 42.85351562 C24.24191373 42.88848322 22.12087026 42.9422747 20 43 C19.97531916 48.09032841 19.95714918 53.18062215 19.94506836 58.27099609 C19.94003318 60.00342414 19.93320468 61.73584792 19.92456055 63.46826172 C19.91245935 65.95541433 19.90676362 68.44251087 19.90234375 70.9296875 C19.89718246 71.70682098 19.89202118 72.48395447 19.88670349 73.28463745 C19.79671948 77.27170906 19.79671948 77.27170906 21 81 C24.99974981 81.11710979 28.99905281 81.18755489 33 81.25 C34.12535156 81.28351563 35.25070312 81.31703125 36.41015625 81.3515625 C43.09146365 81.42970645 48.56952307 81.20544266 54 77 C56.2535577 74.51205028 56.2535577 74.51205028 57.8125 71.75 C59.45703125 69.046875 59.45703125 69.046875 61 67 C61.99 67 62.98 67 64 67 C63.67 73.6 63.34 80.2 63 87 C42.21 87 21.42 87 0 87 C0.33 85.35 0.66 83.7 1 82 C1.66 82 2.32 82 3 82 C3.8027575 77.76407127 4.13064188 73.75615534 4.14526367 69.44726562 C4.15164352 68.16573608 4.15802338 66.88420654 4.16459656 65.56384277 C4.16612519 64.1779789 4.16723918 62.79211452 4.16796875 61.40625 C4.17118578 59.97188281 4.17455018 58.53751593 4.17805481 57.10314941 C4.18402585 54.10407755 4.1858967 51.10503442 4.18530273 48.10595703 C4.185201 44.27281453 4.19887357 40.4398568 4.21607494 36.60675812 C4.22721784 33.64698446 4.22922127 30.68725525 4.22869301 27.72746277 C4.22986888 26.31454326 4.23426854 24.90162246 4.24202538 23.48872375 C4.25187503 21.51008512 4.24767018 19.53139182 4.24291992 17.55273438 C4.24505745 15.8677887 4.24505745 15.8677887 4.24723816 14.14880371 C3.98320291 10.78607374 3.30023909 8.10814582 2 5 C1.34 4.67 0.68 4.34 0 4 C0 2.68 0 1.36 0 0 Z " fill="#FCFEFA" transform="translate(315,153)"/>
<path d="M0 0 C3.29155934 0.08603073 5.44942317 0.36653856 8.2097168 2.2097168 C9.95735879 4.25311359 11.39074629 6.31314034 12.79956055 8.6003418 C14.00612305 10.0234668 14.00612305 10.0234668 15.23706055 11.4753418 C16.79956055 13.6003418 16.79956055 13.6003418 16.79956055 15.6003418 C17.45956055 15.6003418 18.11956055 15.6003418 18.79956055 15.6003418 C19.81055169 17.26036429 20.80745809 18.92896198 21.79956055 20.6003418 C23.63705531 22.91942645 25.59538345 25.12930004 27.54956055 27.3503418 C40.79956055 42.62275246 40.79956055 42.62275246 40.79956055 45.6003418 C41.45956055 45.6003418 42.11956055 45.6003418 42.79956055 45.6003418 C43.69896341 46.94944609 44.59152155 48.30348317 45.4543457 49.67626953 C47.1201329 52.05885916 49.00308388 54.16307815 50.94799805 56.32299805 C51.66906738 57.12616455 52.39013672 57.92933105 53.13305664 58.75683594 C53.95797607 59.66937134 53.95797607 59.66937134 54.79956055 60.6003418 C54.84922944 54.76539329 54.88540707 48.93056958 54.90942383 43.09545898 C54.9194427 41.11301528 54.93306155 39.13058621 54.95043945 37.14819336 C54.97486937 34.28845596 54.98608504 31.42891501 54.99487305 28.5690918 C55.00519562 27.69168335 55.01551819 26.8142749 55.02615356 25.91027832 C55.02753927 18.20243998 54.42042542 11.39153591 48.79956055 5.6003418 C47.80956055 4.9403418 46.81956055 4.2803418 45.79956055 3.6003418 C45.79956055 2.6103418 45.79956055 1.6203418 45.79956055 0.6003418 C51.73956055 0.6003418 57.67956055 0.6003418 63.79956055 0.6003418 C63.79956055 1.9203418 63.79956055 3.2403418 63.79956055 4.6003418 C63.13956055 4.6003418 62.47956055 4.6003418 61.79956055 4.6003418 C59.99134608 9.22417695 59.52567059 13.31690618 59.58837891 18.22631836 C59.59035027 19.33472076 59.59035027 19.33472076 59.59236145 20.46551514 C59.59881603 22.89079949 59.61922549 25.31576135 59.6394043 27.7409668 C59.64567881 29.43153542 59.65091754 31.12210818 59.65516663 32.81268311 C59.66843587 37.25067965 59.69286036 41.68853718 59.72052002 46.12646484 C59.76373904 53.24372866 59.79332193 60.36103174 59.81656075 67.47838593 C59.82680038 69.96572431 59.84384366 72.45295161 59.86155701 74.94024658 C59.86838209 76.45747783 59.87499088 77.97471008 59.88134766 79.49194336 C59.88808502 80.18598267 59.89482239 80.88002197 59.90176392 81.59509277 C59.91319431 86.37307427 59.91319431 86.37307427 58.79956055 88.6003418 C57.80956055 88.6003418 56.81956055 88.6003418 55.79956055 88.6003418 C52.79956055 85.26700846 52.79956055 85.26700846 52.79956055 82.6003418 C51.80956055 82.2703418 50.81956055 81.9403418 49.79956055 81.6003418 C49.13289388 80.26700846 48.46622721 78.93367513 47.79956055 77.6003418 C47.04030273 76.84624023 46.28104492 76.09213867 45.4987793 75.31518555 C42.85370289 72.65479756 40.69725753 69.93923584 38.48706055 66.9128418 C32.65154704 59.02961103 26.53348463 51.43900328 20.17456055 43.9753418 C16.75338088 39.9596031 13.41542721 35.91747379 10.31274414 31.64868164 C8.62070323 29.35822936 6.8793782 27.111094 5.12768555 24.8659668 C4.5028125 24.06449219 3.87793945 23.26301758 3.23413086 22.43725586 C2.76072266 21.83107422 2.28731445 21.22489258 1.79956055 20.6003418 C1.72341365 28.18084266 1.67091975 35.76124464 1.63476562 43.34204102 C1.61969149 45.92020351 1.59922888 48.49834042 1.57324219 51.07641602 C1.53679969 54.78497641 1.51982003 58.49319734 1.5065918 62.2019043 C1.49110794 63.35212067 1.47562408 64.50233704 1.45967102 65.68740845 C1.42965278 73.57632229 1.42965278 73.57632229 4.79956055 80.6003418 C6.46280456 81.60602422 8.12892308 82.60698979 9.79956055 83.6003418 C9.79956055 84.9203418 9.79956055 86.2403418 9.79956055 87.6003418 C3.85956055 87.6003418 -2.08043945 87.6003418 -8.20043945 87.6003418 C-7.87043945 85.9503418 -7.54043945 84.3003418 -7.20043945 82.6003418 C-6.54043945 82.6003418 -5.88043945 82.6003418 -5.20043945 82.6003418 C-4.10188066 79.02759026 -4.04128723 75.6646161 -3.99169922 71.93920898 C-3.98191544 71.27847885 -3.97213165 70.61774872 -3.96205139 69.93699646 C-3.93221456 67.75709006 -3.91074411 65.5772445 -3.8918457 63.3972168 C-3.88527388 62.64962349 -3.87870205 61.90203018 -3.87193108 61.13178253 C-3.83938776 57.17389314 -3.81492549 53.21603008 -3.79541016 49.25805664 C-3.77761011 45.99300758 -3.74280575 42.72882432 -3.69287109 39.46411133 C-3.63248626 35.51067488 -3.6019105 31.55803972 -3.59223747 27.60416412 C-3.5837128 26.10349439 -3.56496847 24.60284435 -3.53549385 23.10243988 C-3.3884276 15.18964513 -3.28932584 8.91976753 -8.90977478 2.79718018 C-9.33569412 2.40222351 -9.76161346 2.00726685 -10.20043945 1.6003418 C-7.87132579 -0.72877186 -3.13387066 0.05714033 0 0 Z " fill="#F6FCF2" transform="translate(395.200439453125,152.399658203125)"/>
<path d="M0 0 C1.88700623 -0.00472824 1.88700623 -0.00472824 3.81213379 -0.009552 C5.19571975 -0.00776222 6.5793054 -0.00571127 7.96289062 -0.00341797 C9.37154151 -0.00409106 10.78019229 -0.00506112 12.18884277 -0.00631714 C15.14462385 -0.00779389 18.10037476 -0.0056403 21.05615234 -0.00097656 C24.85288647 0.00472073 28.64954991 0.0014416 32.44628143 -0.00454903 C35.35610491 -0.00815526 38.2659115 -0.00701577 41.17573547 -0.00442123 C42.57603463 -0.00375214 43.9763353 -0.00457979 45.37663269 -0.00690079 C47.33051526 -0.00942829 49.28440318 -0.0048958 51.23828125 0 C52.35223267 0.00079559 53.46618408 0.00159119 54.6138916 0.00241089 C57.11914062 0.12939453 57.11914062 0.12939453 58.11914062 1.12939453 C58.35567585 3.65535712 58.54087754 6.1604666 58.68164062 8.69189453 C58.72482422 9.4028125 58.76800781 10.11373047 58.8125 10.84619141 C58.91885839 12.60701365 59.01952909 14.36817773 59.11914062 16.12939453 C57.79914063 16.12939453 56.47914063 16.12939453 55.11914062 16.12939453 C53.81054688 14.70361328 53.81054688 14.70361328 52.68164062 12.81689453 C50.64301638 9.42865842 48.63220125 7.95855929 45.11914062 6.12939453 C42.009098 5.35126502 42.009098 5.35126502 38.80664062 4.94189453 C37.73800781 4.78333984 36.669375 4.62478516 35.56835938 4.46142578 C34.76011719 4.35185547 33.951875 4.24228516 33.11914062 4.12939453 C33.22667683 13.70878524 33.33931736 23.28809834 33.45847988 32.86735153 C33.5136509 37.31535133 33.56706158 41.76335777 33.61645508 46.21142578 C33.66418451 50.50381395 33.71653038 54.79612323 33.77208138 59.08841705 C33.79246607 60.72625007 33.81118551 62.36410468 33.82821465 64.00197601 C33.85234479 66.2955048 33.88238737 68.58888548 33.91381836 70.88232422 C33.93713478 72.84090363 33.93713478 72.84090363 33.96092224 74.83905029 C34.09278425 78.58837009 34.09278425 78.58837009 35.11914062 82.12939453 C36.10914063 82.45939453 37.09914063 82.78939453 38.11914062 83.12939453 C38.11914062 84.44939453 38.11914062 85.76939453 38.11914062 87.12939453 C29.86914062 87.12939453 21.61914062 87.12939453 13.11914062 87.12939453 C13.44914063 85.47939453 13.77914062 83.82939453 14.11914062 82.12939453 C15.10914063 81.63439453 15.10914063 81.63439453 16.11914062 81.12939453 C17.2983202 77.59185581 17.2800781 74.73051285 17.32446289 70.99584961 C17.33931229 69.91254616 17.33931229 69.91254616 17.35446167 68.80735779 C17.38603822 66.42124708 17.41081885 64.03511648 17.43554688 61.64892578 C17.45611973 59.99410994 17.47711629 58.33929932 17.4985199 56.68449402 C17.55370638 52.329643 17.60313075 47.97474482 17.65136719 43.61981201 C17.7016072 39.17569788 17.75728022 34.73165221 17.8125 30.28759766 C17.92003971 21.5682545 18.02149397 12.84885406 18.11914062 4.12939453 C16.19348851 4.4158894 14.26926793 4.71201738 12.34570312 5.01220703 C11.27400879 5.1760791 10.20231445 5.33995117 9.09814453 5.50878906 C5.13103777 6.33524255 3.12476684 7.44015002 0.11914062 10.12939453 C-1.26954453 12.22978784 -1.26954453 12.22978784 -1.88085938 14.12939453 C-2.54085937 14.12939453 -3.20085938 14.12939453 -3.88085938 14.12939453 C-4.21085938 15.11939453 -4.54085937 16.10939453 -4.88085938 17.12939453 C-5.87085938 16.79939453 -6.86085938 16.46939453 -7.88085938 16.12939453 C-7.74061718 13.64979317 -7.59394087 11.17087051 -7.44335938 8.69189453 C-7.40404297 7.98484375 -7.36472656 7.27779297 -7.32421875 6.54931641 C-6.91529669 -0.02489206 -6.45687509 0.00461155 0 0 Z " fill="#F80400" transform="translate(573.880859375,152.87060546875)"/>
<path d="M0 0 C8.45767731 -0.02255381 16.91533141 -0.0409167 25.37303066 -0.05181217 C29.29988658 -0.05704031 33.22672094 -0.06413669 37.15356445 -0.07543945 C40.94014257 -0.0862708 44.7266999 -0.09227736 48.51329231 -0.09487724 C49.96104319 -0.09673105 51.40879288 -0.10035081 52.85653496 -0.10573006 C54.87757135 -0.11294367 56.89862848 -0.11340808 58.91967773 -0.11352539 C60.64842384 -0.11685631 60.64842384 -0.11685631 62.41209412 -0.12025452 C65 0 65 0 66 1 C66.07319621 3.69654854 66.09242537 6.36691458 66.0625 9.0625 C66.05798828 9.82111328 66.05347656 10.57972656 66.04882812 11.36132812 C66.0370068 13.24091871 66.01907078 15.12046899 66 17 C62.21875 16.3046875 62.21875 16.3046875 60.25 13.5625 C59 11 59 11 59 9 C57.68 8.67 56.36 8.34 55 8 C55 7.34 55 6.68 55 6 C48.07 5.505 48.07 5.505 41 5 C40.97738213 14.15362512 40.95904618 23.3072316 40.94818783 32.46087837 C40.94297563 36.71155971 40.93590821 40.96222089 40.92456055 45.21289062 C40.91367254 49.31720044 40.90771064 53.42149091 40.90512276 57.52581406 C40.90327916 59.08944885 40.8996791 60.65308261 40.89426994 62.21670914 C40.88698099 64.41158565 40.88601236 66.6063828 40.88647461 68.80126953 C40.884254 70.04925323 40.88203339 71.29723694 40.87974548 72.58303833 C40.99343453 75.81344605 41.38728604 78.83007826 42 82 C42.99 82.33 43.98 82.66 45 83 C45 84.32 45 85.64 45 87 C37.08 87 29.16 87 21 87 C21.33 85.35 21.66 83.7 22 82 C22.66 82 23.32 82 24 82 C24.99760341 73.09561792 25.21079885 64.21917148 25.31640625 55.26953125 C25.3370292 53.78309116 25.35802685 52.29665623 25.37937927 50.81022644 C25.43404943 46.93553904 25.4836967 43.06080368 25.53222656 39.18603516 C25.58284891 35.21708001 25.6383203 31.24819279 25.69335938 27.27929688 C25.80026537 19.5195891 25.90185449 11.75982406 26 4 C23.90657229 4.29121864 21.81434079 4.59104543 19.72265625 4.89453125 C17.97480835 5.14360229 17.97480835 5.14360229 16.19165039 5.39770508 C12.23121824 6.14507646 9.92988785 7.22036281 7 10 C5.44618687 12.27925269 4.23961949 14.52076102 3 17 C1.68 16.67 0.36 16.34 -1 16 C-0.67 10.72 -0.34 5.44 0 0 Z " fill="#FCFEFB" transform="translate(464,153)"/>
<path d="M0 0 C7.59 0 15.18 0 23 0 C23 4 23 4 21.52128601 5.79705811 C19.33211362 8.96715206 19.63990964 11.42229033 19.65942383 15.24707031 C19.65898575 15.96941864 19.65854767 16.69176697 19.65809631 17.43600464 C19.66018171 19.81698904 19.68350014 22.19726403 19.70703125 24.578125 C19.71262811 26.23150243 19.71689778 27.88488485 19.71989441 29.53826904 C19.73133614 33.88506868 19.76079741 38.23156649 19.79400635 42.57824707 C19.82472179 47.01566485 19.83840289 51.4531315 19.85351562 55.890625 C19.88566787 64.59388834 19.93685594 73.2969066 20 82 C21.32 82.33 22.64 82.66 24 83 C24 84.32 24 85.64 24 87 C15.85351368 87.76299944 8.11388044 88.21521251 0 87 C-0.33 85.68 -0.66 84.36 -1 83 C0.485 82.505 0.485 82.505 2 82 C3.38618434 78.62383744 3.1403162 74.99955559 3.16113281 71.39892578 C3.16609772 70.74473663 3.17106262 70.09054749 3.17617798 69.41653442 C3.19074348 67.25944962 3.19759183 65.10243833 3.203125 62.9453125 C3.20888064 61.44082641 3.21463832 59.93634032 3.22039795 58.43185425 C3.23089167 55.27959859 3.23674512 52.12736831 3.24023438 48.97509766 C3.24571869 44.94452942 3.26975199 40.91429906 3.29820633 36.88383675 C3.31686868 33.77650992 3.32204019 30.66926396 3.32357025 27.56188583 C3.3265887 26.07638576 3.33458991 24.59088684 3.34775543 23.10544205 C3.36489366 21.02332375 3.36291749 18.94202433 3.35644531 16.85986328 C3.36009094 15.67723907 3.36373657 14.49461487 3.36749268 13.27615356 C2.95568146 9.60490544 1.70081586 7.24718772 0 4 C0 2.68 0 1.36 0 0 Z " fill="#FA0200" transform="translate(537,153)"/>
<path d="M0 0 C7.59 0 15.18 0 23 0 C22.67 0.66 22.34 1.32 22 2 C19.67843403 2.40729228 17.3431213 2.74438677 15 3 C14.89470969 21.53433448 14.88438331 40.07046953 15.26345825 58.60198975 C15.29610985 60.28178957 15.32369098 61.96169573 15.34616089 63.6416626 C15.37914653 65.99343086 15.43108033 68.34402504 15.48828125 70.6953125 C15.49787369 71.74283691 15.49787369 71.74283691 15.50765991 72.81152344 C15.59577888 75.67222844 15.67141788 77.55767133 17.40698242 79.89404297 C19.01704169 81.06798825 19.01704169 81.06798825 21 82 C20.67 83.32 20.34 84.64 20 86 C13.4 86 6.8 86 0 86 C0.33 84.02 0.66 82.04 1 80 C1.12118577 77.49028803 1.195776 74.97811722 1.23706055 72.46582031 C1.25672882 71.37204826 1.25672882 71.37204826 1.27679443 70.25617981 C1.31833031 67.8635465 1.35298935 65.47088028 1.38671875 63.078125 C1.41239276 61.40997147 1.43817667 59.74181964 1.46406555 58.07366943 C1.51688908 54.58707545 1.56584281 51.10045054 1.61254883 47.61376953 C1.67316767 43.13889488 1.74737632 38.66435584 1.82492352 34.18974686 C1.88239062 30.74984166 1.93074536 27.30985283 1.976511 23.86977386 C1.99995379 22.21905284 2.02671847 20.56837561 2.05682945 18.91776276 C2.09782136 16.61738816 2.12609896 14.31719748 2.15112305 12.01660156 C2.17031296 10.70677307 2.18950287 9.39694458 2.20927429 8.04742432 C2.32769178 4.88969136 2.32769178 4.88969136 0 3 C0 2.01 0 1.02 0 0 Z " fill="#FCFEFA" transform="translate(244,154)"/>
<path d="M0 0 C1.88700623 -0.00472824 1.88700623 -0.00472824 3.81213379 -0.009552 C5.19571975 -0.00776222 6.5793054 -0.00571127 7.96289062 -0.00341797 C9.37154151 -0.00409106 10.78019229 -0.00506112 12.18884277 -0.00631714 C15.14462385 -0.00779389 18.10037476 -0.0056403 21.05615234 -0.00097656 C24.85288647 0.00472073 28.64954991 0.0014416 32.44628143 -0.00454903 C35.35610491 -0.00815526 38.2659115 -0.00701577 41.17573547 -0.00442123 C42.57603463 -0.00375214 43.9763353 -0.00457979 45.37663269 -0.00690079 C47.33051526 -0.00942829 49.28440318 -0.0048958 51.23828125 0 C52.35223267 0.00079559 53.46618408 0.00159119 54.6138916 0.00241089 C57.11914062 0.12939453 57.11914062 0.12939453 58.11914062 1.12939453 C58.35567585 3.65535712 58.54087754 6.1604666 58.68164062 8.69189453 C58.72482422 9.4028125 58.76800781 10.11373047 58.8125 10.84619141 C58.91885839 12.60701365 59.01952909 14.36817773 59.11914062 16.12939453 C57.79914063 16.12939453 56.47914063 16.12939453 55.11914062 16.12939453 C53.81054688 14.70361328 53.81054688 14.70361328 52.68164062 12.81689453 C50.64301638 9.42865842 48.63220125 7.95855929 45.11914062 6.12939453 C42.009098 5.35126502 42.009098 5.35126502 38.80664062 4.94189453 C37.73800781 4.78333984 36.669375 4.62478516 35.56835938 4.46142578 C34.76011719 4.35185547 33.951875 4.24228516 33.11914062 4.12939453 C33.22667683 13.70878524 33.33931736 23.28809834 33.45847988 32.86735153 C33.5136509 37.31535133 33.56706158 41.76335777 33.61645508 46.21142578 C33.66418451 50.50381395 33.71653038 54.79612323 33.77208138 59.08841705 C33.79246607 60.72625007 33.81118551 62.36410468 33.82821465 64.00197601 C33.85234479 66.2955048 33.88238737 68.58888548 33.91381836 70.88232422 C33.93713478 72.84090363 33.93713478 72.84090363 33.96092224 74.83905029 C34.09278425 78.58837009 34.09278425 78.58837009 35.11914062 82.12939453 C36.10914063 82.45939453 37.09914063 82.78939453 38.11914062 83.12939453 C38.11914062 84.44939453 38.11914062 85.76939453 38.11914062 87.12939453 C29.86914062 87.12939453 21.61914062 87.12939453 13.11914062 87.12939453 C13.44914063 85.47939453 13.77914062 83.82939453 14.11914062 82.12939453 C15.10914063 81.63439453 15.10914063 81.63439453 16.11914062 81.12939453 C17.28105692 77.64364565 17.27952077 74.85827726 17.32446289 71.17944336 C17.33931229 70.12540062 17.33931229 70.12540062 17.35446167 69.05006409 C17.38603296 66.72888552 17.41081675 64.40768649 17.43554688 62.08642578 C17.45612018 60.4764503 17.47711676 58.86648017 17.4985199 57.2565155 C17.55370168 53.02003315 17.60312812 48.78350237 17.65136719 44.54693604 C17.70161064 40.22346692 17.75728186 35.90006809 17.8125 31.57666016 C17.92003396 23.09429772 18.02148949 14.61187647 18.11914062 6.12939453 C18.44914063 6.12939453 18.77914062 6.12939453 19.11914062 6.12939453 C19.44914063 31.86939453 19.77914062 57.60939453 20.11914062 84.12939453 C23.74914062 84.12939453 27.37914062 84.12939453 31.11914062 84.12939453 C32.31668416 80.53676394 32.25112816 77.27482846 32.23266602 73.53686523 C32.23281204 72.76589508 32.23295807 71.99492493 32.23310852 71.20059204 C32.23241182 68.65209134 32.22463072 66.10366372 32.21679688 63.55517578 C32.21493184 61.78826436 32.21350834 60.02135243 32.21250916 58.25444031 C32.20869075 53.603613 32.19886621 48.95281692 32.18780518 44.30200195 C32.17757654 39.5563194 32.17300842 34.8106318 32.16796875 30.06494141 C32.15724336 20.75307873 32.14017502 11.44123923 32.11914062 2.12939453 C27.49914062 2.12939453 22.87914062 2.12939453 18.11914062 2.12939453 C18.11914062 2.78939453 18.11914062 3.44939453 18.11914062 4.12939453 C17.3225 4.22736328 16.52585937 4.32533203 15.70507812 4.42626953 C7.18211912 5.6067688 7.18211912 5.6067688 0.11914062 10.12939453 C-1.26954453 12.22978784 -1.26954453 12.22978784 -1.88085938 14.12939453 C-2.54085937 14.12939453 -3.20085938 14.12939453 -3.88085938 14.12939453 C-4.21085938 15.11939453 -4.54085937 16.10939453 -4.88085938 17.12939453 C-5.87085938 16.79939453 -6.86085938 16.46939453 -7.88085938 16.12939453 C-7.74061718 13.64979317 -7.59394087 11.17087051 -7.44335938 8.69189453 C-7.40404297 7.98484375 -7.36472656 7.27779297 -7.32421875 6.54931641 C-6.91529669 -0.02489206 -6.45687509 0.00461155 0 0 Z " fill="#C32F09" transform="translate(573.880859375,152.87060546875)"/>
<path d="M0 0 C1.32 0 2.64 0 4 0 C4 7.26 4 14.52 4 22 C2.35 21.67 0.7 21.34 -1 21 C-1.268125 20.38125 -1.53625 19.7625 -1.8125 19.125 C-3.43881707 16.21474839 -5.5860056 15.6844445 -8.6315918 14.60644531 C-12.745627 13.5530216 -16.78075947 13.68611722 -21 13.8125 C-22.30517578 13.83280273 -22.30517578 13.83280273 -23.63671875 13.85351562 C-25.75808627 13.88848322 -27.87912974 13.9422747 -30 14 C-30.02468084 19.09032841 -30.04285082 24.18062215 -30.05493164 29.27099609 C-30.05996682 31.00342414 -30.06679532 32.73584792 -30.07543945 34.46826172 C-30.08754065 36.95541433 -30.09323638 39.44251087 -30.09765625 41.9296875 C-30.10281754 42.70682098 -30.10797882 43.48395447 -30.11329651 44.28463745 C-30.20328052 48.27170906 -30.20328052 48.27170906 -29 52 C-25.00025019 52.11710979 -21.00094719 52.18755489 -17 52.25 C-15.87464844 52.28351563 -14.74929688 52.31703125 -13.58984375 52.3515625 C-6.90853635 52.42970645 -1.43047693 52.20544266 4 48 C6.2535577 45.51205028 6.2535577 45.51205028 7.8125 42.75 C9.45703125 40.046875 9.45703125 40.046875 11 38 C11.99 38 12.98 38 14 38 C13.67 44.6 13.34 51.2 13 58 C-2.18 58 -17.36 58 -33 58 C-33.04125 50.843125 -33.0825 43.68625 -33.125 36.3125 C-33.14320801 34.06091064 -33.16141602 31.80932129 -33.18017578 29.48950195 C-33.18601906 27.69743081 -33.19111501 25.905357 -33.1953125 24.11328125 C-33.20554443 23.18882202 -33.21577637 22.26436279 -33.22631836 21.31188965 C-33.22754902 16.76642746 -33.17935868 13.12117481 -31 9 C-30.33468262 8.9906543 -29.66936523 8.98130859 -28.98388672 8.97167969 C-25.94685981 8.91773981 -22.91133421 8.83413938 -19.875 8.75 C-18.82828125 8.73582031 -17.7815625 8.72164062 -16.703125 8.70703125 C-10.55307356 8.51240937 -6.65858313 8.16166759 -2 4 C-0.61131484 1.89960669 -0.61131484 1.89960669 0 0 Z " fill="#F2FEE9" transform="translate(365,182)"/>
<path d="M0 0 C1.258125 -0.04125 2.51625 -0.0825 3.8125 -0.125 C4.52019531 -0.14820313 5.22789062 -0.17140625 5.95703125 -0.1953125 C8 0 8 0 11 2 C12.3921875 2.2165625 12.3921875 2.2165625 13.8125 2.4375 C17.52557329 3.09274823 19.88155585 3.85173847 23 6 C26.20655632 11.10406905 26.88799082 17.12329671 26 23 C24.2009275 29.23068611 21.6399388 33.70116787 16 37 C12.94830891 37.37958842 10.05516336 37.30551634 7 37 C7.4979837 33.26512223 7.87491756 31.18762365 10 28 C10.35658489 24.96898838 10.35658489 24.96898838 10.3125 21.625 C10.32925781 20.50351563 10.34601563 19.38203125 10.36328125 18.2265625 C9.96473372 14.68677475 8.96364142 12.92054282 7 10 C6.690625 8.9275 6.38125 7.855 6.0625 6.75 C5.711875 5.8425 5.36125 4.935 5 4 C2.98491642 3.26676204 2.98491642 3.26676204 1 3 C0.67 2.01 0.34 1.02 0 0 Z " fill="#F6FCF3" transform="translate(273,155)"/>
<path d="M0 0 C4.46165577 -0.05016131 8.92315374 -0.08607179 13.38500977 -0.10986328 C14.89675767 -0.11980161 16.40848699 -0.13335698 17.92016602 -0.15087891 C40.84637346 -0.40958818 40.84637346 -0.40958818 51 4 C50.67 4.66 50.34 5.32 50 6 C43.25 5.25 43.25 5.25 41 3 C37.41656024 2.83322718 37.41656024 2.83322718 34 3 C34 3.66 34 4.32 34 5 C36.475 5.495 36.475 5.495 39 6 C39.495 8.475 39.495 8.475 40 11 C39.113125 10.21625 38.22625 9.4325 37.3125 8.625 C31.9591096 4.98814006 31.9591096 4.98814006 20 4 C20 15.55 20 27.1 20 39 C23.63 39 27.26 39 31 39 C31 39.66 31 40.32 31 41 C31.66 41.33 32.32 41.66 33 42 C33 42.99 33 43.98 33 45 C28.71 44.34 24.42 43.68 20 43 C20 54.88 20 66.76 20 79 C19.67 79 19.34 79 19 79 C18.379715 59.3966843 17.89639926 39.80162778 17.875 20.1875 C17.87250244 19.37415192 17.87000488 18.56080383 17.86743164 17.72280884 C17.86161783 15.43365045 17.86297907 13.14462812 17.8671875 10.85546875 C17.86831543 9.55246826 17.86944336 8.24946777 17.87060547 6.90698242 C18 4 18 4 19 3 C22.465 2.505 22.465 2.505 26 2 C18.74 1.67 11.48 1.34 4 1 C4.99 2.98 5.98 4.96 7 7 C7.23669497 9.64469572 7.32567648 12.02625047 7.2487793 14.65771484 C7.23946381 15.39986237 7.23014832 16.14200989 7.22055054 16.90664673 C7.18637525 19.34189148 7.13045058 21.77611077 7.07421875 24.2109375 C7.04616474 25.90627912 7.01947657 27.60164385 6.99409485 29.29702759 C6.92383566 33.74590956 6.83508718 38.19423583 6.74243164 42.6427002 C6.65106271 47.1873909 6.577256 51.73236347 6.50195312 56.27734375 C6.35178346 65.18525827 6.18207153 74.09268441 6 83 C5.34 83 4.68 83 4 83 C4 84.32 4 85.64 4 87 C2.68 87 1.36 87 0 87 C0.33 85.35 0.66 83.7 1 82 C1.66 82 2.32 82 3 82 C3 56.59 3 31.18 3 5 C2.34 5 1.68 5 1 5 C0.67 3.35 0.34 1.7 0 0 Z " fill="#FAFFD2" transform="translate(240,153)"/>
<path d="M0 0 C0.68578125 -0.02900391 1.3715625 -0.05800781 2.078125 -0.08789062 C4.0859375 -0.11328125 4.0859375 -0.11328125 7.625 0.3125 C9.6015625 2.33203125 9.6015625 2.33203125 10.625 4.3125 C10.00625 3.9825 9.3875 3.6525 8.75 3.3125 C4.36288488 1.90862316 0.19348573 2.15282477 -4.375 2.3125 C-3.385 2.6425 -2.395 2.9725 -1.375 3.3125 C-0.385 8.2625 0.605 13.2125 1.625 18.3125 C2.615 18.3125 3.605 18.3125 4.625 18.3125 C4.295 18.9725 3.965 19.6325 3.625 20.3125 C3.51928124 22.00634326 3.47623716 23.70427307 3.46386719 25.40136719 C3.45425964 26.46297058 3.4446521 27.52457397 3.43475342 28.61834717 C3.4283786 30.34640594 3.4283786 30.34640594 3.421875 32.109375 C3.41617493 33.29090149 3.41047485 34.47242798 3.40460205 35.6897583 C3.39514106 38.19485577 3.38861372 40.69996575 3.38476562 43.20507812 C3.37507525 47.03277432 3.34406759 50.85993027 3.3125 54.6875 C3.30596859 57.11978847 3.30071866 59.55208079 3.296875 61.984375 C3.2845282 63.12831726 3.2721814 64.27225952 3.25946045 65.4508667 C3.26079733 73.31161 3.26079733 73.31161 6.625 80.3125 C8.28824401 81.31818242 9.95436253 82.31914799 11.625 83.3125 C11.625 84.6325 11.625 85.9525 11.625 87.3125 C5.685 87.3125 -0.255 87.3125 -6.375 87.3125 C-6.045 85.6625 -5.715 84.0125 -5.375 82.3125 C-4.715 82.3125 -4.055 82.3125 -3.375 82.3125 C-2.27644121 78.73974847 -2.21584777 75.3767743 -2.16625977 71.65136719 C-2.15647598 70.99063705 -2.1466922 70.32990692 -2.13661194 69.64915466 C-2.1067751 67.46924826 -2.08530466 65.2894027 -2.06640625 63.109375 C-2.05983442 62.36178169 -2.0532626 61.61418839 -2.04649162 60.84394073 C-2.01394831 56.88605134 -1.98948603 52.92818829 -1.9699707 48.97021484 C-1.95217065 45.70516578 -1.9173663 42.44098253 -1.86743164 39.17626953 C-1.8070468 35.22283309 -1.77647105 31.27019793 -1.76679802 27.31632233 C-1.75827335 25.81565259 -1.73952902 24.31500256 -1.7100544 22.81459808 C-1.56298815 14.90180333 -1.46388639 8.63192573 -7.08433533 2.50933838 C-7.51025467 2.11438171 -7.93617401 1.71942505 -8.375 1.3125 C-6.3887131 -0.6737869 -2.70502678 0.03770948 0 0 Z " fill="#D5F0C6" transform="translate(393.375,152.6875)"/>
<path d="M0 0 C19.8 0 39.6 0 60 0 C60.66 6.27 61.32 12.54 62 19 C60.35 18.67 58.7 18.34 57 18 C55 15 55 15 55 12 C54.34 12 53.68 12 53 12 C52.484375 11.401875 51.96875 10.80375 51.4375 10.1875 C45.26234606 4.64569518 36.86257794 4.50552556 28.9375 4.3125 C27.97650391 4.27833984 27.01550781 4.24417969 26.02539062 4.20898438 C23.68371073 4.12743333 21.34236137 4.05799034 19 4 C19 3.34 19 2.68 19 2 C13.72 2 8.44 2 3 2 C3 2.66 3 3.32 3 4 C3.99 4.33 4.98 4.66 6 5 C6.0231834 14.30127645 6.04094569 23.60254292 6.05181217 32.90384197 C6.05702786 37.22293303 6.06410168 41.54200431 6.07543945 45.86108398 C6.08631499 50.03022773 6.09228674 54.19935246 6.09487724 58.36850929 C6.09672307 59.95809033 6.1003275 61.54767034 6.10573006 63.13724327 C6.11300241 65.36585098 6.11398833 67.59438036 6.11352539 69.82299805 C6.115746 71.09096725 6.11796661 72.35893646 6.12025452 73.66532898 C6.01509568 76.58139505 5.67981337 79.17066066 5 82 C4.34 82 3.68 82 3 82 C3.16200394 81.14515015 3.32400787 80.29030029 3.49092102 79.4095459 C3.99527631 76.0316368 4.13368156 72.86039435 4.14526367 69.44726562 C4.15164352 68.16573608 4.15802338 66.88420654 4.16459656 65.56384277 C4.16612519 64.1779789 4.16723918 62.79211452 4.16796875 61.40625 C4.17118578 59.97188281 4.17455018 58.53751593 4.17805481 57.10314941 C4.18402585 54.10407755 4.1858967 51.10503442 4.18530273 48.10595703 C4.185201 44.27281453 4.19887357 40.4398568 4.21607494 36.60675812 C4.22721784 33.64698446 4.22922127 30.68725525 4.22869301 27.72746277 C4.22986888 26.31454326 4.23426854 24.90162246 4.24202538 23.48872375 C4.25187503 21.51008512 4.24767018 19.53139182 4.24291992 17.55273438 C4.24505745 15.8677887 4.24505745 15.8677887 4.24723816 14.14880371 C3.98320291 10.78607374 3.30023909 8.10814582 2 5 C1.34 4.67 0.68 4.34 0 4 C0 2.68 0 1.36 0 0 Z " fill="#E0FCD0" transform="translate(315,153)"/>
<path d="M0 0 C5.94 0 11.88 0 18 0 C18 1.32 18 2.64 18 4 C17.34 4 16.68 4 16 4 C14.19178553 8.62383516 13.72611005 12.71656438 13.78881836 17.62597656 C13.7901326 18.3649115 13.79144684 19.10384644 13.7928009 19.86517334 C13.79925548 22.29045769 13.81966494 24.71541955 13.83984375 27.140625 C13.84611826 28.83119362 13.85135699 30.52176638 13.85560608 32.21234131 C13.86887532 36.65033785 13.89329981 41.08819538 13.92095947 45.52612305 C13.96417849 52.64338686 13.99376139 59.76068995 14.0170002 66.87804413 C14.02723983 69.36538251 14.04428311 71.85260981 14.06199646 74.33990479 C14.06882154 75.85713603 14.07543034 77.37436828 14.08178711 78.89160156 C14.08852448 79.58564087 14.09526184 80.27968018 14.10220337 80.99475098 C14.11363377 85.77273247 14.11363377 85.77273247 13 88 C12.01 88 11.02 88 10 88 C7 84.66666667 7 84.66666667 7 82 C6.01 81.67 5.02 81.34 4 81 C2.8125 78.4375 2.8125 78.4375 2 76 C3.32 76.66 4.64 77.32 6 78 C6 78.66 6 79.32 6 80 C6.66 80 7.32 80 8 80 C8 80.66 8 81.32 8 82 C8.99 82 9.98 82 11 82 C11.33 74.74 11.66 67.48 12 60 C11.34 60 10.68 60 10 60 C9.98018066 58.76958984 9.96036133 57.53917969 9.93994141 56.27148438 C9.86350865 51.67916405 9.77485087 47.08714509 9.68261719 42.49511719 C9.64448243 40.51275612 9.60960331 38.5303295 9.578125 36.54785156 C9.53213605 33.68791376 9.47419928 30.82842118 9.4140625 27.96875 C9.40251129 27.09134155 9.39096008 26.21393311 9.37905884 25.30993652 C9.19765149 17.63841911 8.59175236 10.7611994 3 5 C2.01 4.34 1.02 3.68 0 3 C0 2.01 0 1.02 0 0 Z " fill="#E3FACD" transform="translate(441,153)"/>
<path d="M0 0 C7.59 0 15.18 0 23 0 C23 4 23 4 21.52128601 5.79705811 C19.33211362 8.96715206 19.63990964 11.42229033 19.65942383 15.24707031 C19.65898575 15.96941864 19.65854767 16.69176697 19.65809631 17.43600464 C19.66018171 19.81698904 19.68350014 22.19726403 19.70703125 24.578125 C19.71262811 26.23150243 19.71689778 27.88488485 19.71989441 29.53826904 C19.73133614 33.88506868 19.76079741 38.23156649 19.79400635 42.57824707 C19.82472179 47.01566485 19.83840289 51.4531315 19.85351562 55.890625 C19.88566787 64.59388834 19.93685594 73.2969066 20 82 C21.32 82.33 22.64 82.66 24 83 C24 84.32 24 85.64 24 87 C15.85351368 87.76299944 8.11388044 88.21521251 0 87 C-0.33 85.68 -0.66 84.36 -1 83 C0.485 82.505 0.485 82.505 2 82 C3.38618434 78.62383744 3.1403162 74.99955559 3.16113281 71.39892578 C3.16609772 70.74473663 3.17106262 70.09054749 3.17617798 69.41653442 C3.19074348 67.25944962 3.19759183 65.10243833 3.203125 62.9453125 C3.20888064 61.44082641 3.21463832 59.93634032 3.22039795 58.43185425 C3.23089167 55.27959859 3.23674512 52.12736831 3.24023438 48.97509766 C3.24571869 44.94452942 3.26975199 40.91429906 3.29820633 36.88383675 C3.31686868 33.77650992 3.32204019 30.66926396 3.32357025 27.56188583 C3.3265887 26.07638576 3.33458991 24.59088684 3.34775543 23.10544205 C3.36489366 21.02332375 3.36291749 18.94202433 3.35644531 16.85986328 C3.36009094 15.67723907 3.36373657 14.49461487 3.36749268 13.27615356 C2.95568146 9.60490544 1.70081586 7.24718772 0 4 C0 2.68 0 1.36 0 0 Z M1 1 C1 1.66 1 2.32 1 3 C1.99 3 2.98 3 4 3 C4 4.32 4 5.64 4 7 C4.66 7 5.32 7 6 7 C6 31.09 6 55.18 6 80 C5.34 80 4.68 80 4 80 C3.34 81.65 2.68 83.3 2 85 C8.41174689 86.36420147 10.95469013 85.56562442 18 84 C18.33 57.6 18.66 31.2 19 4 C19.66 4 20.32 4 21 4 C21 3.01 21 2.02 21 1 C14.4 1 7.8 1 1 1 Z " fill="#C8410A" transform="translate(537,153)"/>
<path d="M0 0 C8.45767731 -0.02255381 16.91533141 -0.0409167 25.37303066 -0.05181217 C29.29988658 -0.05704031 33.22672094 -0.06413669 37.15356445 -0.07543945 C40.94014257 -0.0862708 44.7266999 -0.09227736 48.51329231 -0.09487724 C49.96104319 -0.09673105 51.40879288 -0.10035081 52.85653496 -0.10573006 C54.87757135 -0.11294367 56.89862848 -0.11340808 58.91967773 -0.11352539 C60.64842384 -0.11685631 60.64842384 -0.11685631 62.41209412 -0.12025452 C65 0 65 0 66 1 C66.07319621 3.69654854 66.09242537 6.36691458 66.0625 9.0625 C66.05798828 9.82111328 66.05347656 10.57972656 66.04882812 11.36132812 C66.0370068 13.24091871 66.01907078 15.12046899 66 17 C62.21875 16.3046875 62.21875 16.3046875 60.25 13.5625 C59 11 59 11 59 9 C57.68 8.67 56.36 8.34 55 8 C55 7.34 55 6.68 55 6 C52.69 5.67 50.38 5.34 48 5 C49.1171875 3.5078125 49.1171875 3.5078125 51 2 C53.8828125 1.7421875 53.8828125 1.7421875 57.125 1.875 C59.08251052 1.94541405 61.04123218 1.99415293 63 2 C63.33 1.67 63.66 1.34 64 1 C48.82 1 33.64 1 18 1 C18 1.66 18 2.32 18 3 C20.64 3 23.28 3 26 3 C26 3.33 26 3.66 26 4 C25.13117188 4.09796875 24.26234375 4.1959375 23.3671875 4.296875 C14.42849914 5.30173786 14.42849914 5.30173786 7 10 C5.44618687 12.27925269 4.23961949 14.52076102 3 17 C1.68 16.67 0.36 16.34 -1 16 C-0.67 10.72 -0.34 5.44 0 0 Z " fill="#EEFAE6" transform="translate(464,153)"/>
<path d="M0 0 C1.41623216 -0.05447047 2.83308191 -0.09300508 4.25 -0.125 C5.03890625 -0.14820313 5.8278125 -0.17140625 6.640625 -0.1953125 C9 0 9 0 13 2 C9.04 1.67 5.08 1.34 1 1 C1.10753621 10.57939071 1.22017673 20.15870381 1.33933926 29.737957 C1.39451028 34.1859568 1.44792096 38.63396324 1.49731445 43.08203125 C1.54504388 47.37441942 1.59738975 51.6667287 1.65294075 55.95902252 C1.67332544 57.59685553 1.69204489 59.23471014 1.70907402 60.87258148 C1.73320416 63.16611027 1.76324675 65.45949094 1.79467773 67.75292969 C1.81799416 69.71150909 1.81799416 69.71150909 1.84178162 71.70965576 C1.97364363 75.45897556 1.97364363 75.45897556 3 79 C4.485 79.495 4.485 79.495 6 80 C6 81.32 6 82.64 6 84 C-2.25 84 -10.5 84 -19 84 C-18.67 82.35 -18.34 80.7 -18 79 C-17.01 78.505 -17.01 78.505 -16 78 C-14.83808371 74.51425112 -14.83961986 71.72888273 -14.79467773 68.05004883 C-14.78477814 67.34735367 -14.77487854 66.64465851 -14.76467896 65.92066956 C-14.73310766 63.59949099 -14.70832387 61.27829195 -14.68359375 58.95703125 C-14.66302044 57.34705577 -14.64202387 55.73708564 -14.62062073 54.12712097 C-14.56543894 49.89063862 -14.51601251 45.65410784 -14.46777344 41.4175415 C-14.41752999 37.09407239 -14.36185877 32.77067356 -14.30664062 28.44726562 C-14.19910666 19.96490319 -14.09765113 11.48248193 -14 3 C-13.67 3 -13.34 3 -13 3 C-12.67 28.74 -12.34 54.48 -12 81 C-8.37 81 -4.74 81 -1 81 C0.18872138 77.43383586 0.13208696 74.20908659 0.11352539 70.49926758 C0.11367142 69.73805099 0.11381744 68.97683441 0.1139679 68.19255066 C0.11327124 65.6765152 0.10549038 63.16055378 0.09765625 60.64453125 C0.09579119 58.90004008 0.0943677 57.1555484 0.09336853 55.41105652 C0.08955026 50.81941278 0.07972584 46.22780067 0.06866455 41.63616943 C0.05843561 36.95081002 0.05386773 32.26544549 0.04882812 27.58007812 C0.03810298 18.38670485 0.02103481 9.19335506 0 0 Z " fill="#C14205" transform="translate(606,156)"/>
<path d="M0 0 C1.32 0 2.64 0 4 0 C4 7.26 4 14.52 4 22 C2.35 21.67 0.7 21.34 -1 21 C-2.02611949 19.34928604 -3.02308143 17.68029994 -4 16 C-7.06717124 13.70417137 -7.06717124 13.70417137 -10 12 C-7.21991489 8.39618597 -4.215198 5.215198 -1 2 C-0.67 1.34 -0.34 0.68 0 0 Z " fill="#F8FDF6" transform="translate(365,182)"/>
<path d="M0 0 C0.66 0 1.32 0 2 0 C2 11.55 2 23.1 2 35 C5.63 35 9.26 35 13 35 C13 35.66 13 36.32 13 37 C13.66 37.33 14.32 37.66 15 38 C15 38.99 15 39.98 15 41 C10.71 40.34 6.42 39.68 2 39 C2 50.88 2 62.76 2 75 C1.67 75 1.34 75 1 75 C0.20871801 49.99254289 -0.14213303 25.01978648 0 0 Z " fill="#BED39D" transform="translate(258,157)"/>
<path d="M0 0 C0.80974903 2.84313331 1.12241859 5.35702965 1.11352539 8.30957031 C1.11344986 9.15013977 1.11337433 9.99070923 1.11329651 10.85675049 C1.10813522 11.75480408 1.10297394 12.65285767 1.09765625 13.578125 C1.09553383 14.96798615 1.09553383 14.96798615 1.09336853 16.38592529 C1.08777824 19.34064992 1.0752275 22.29529833 1.0625 25.25 C1.05748375 27.25520724 1.05292106 29.26041567 1.04882812 31.265625 C1.03781199 36.17711263 1.020554 41.0885434 1 46 C1.33 46 1.66 46 2 46 C2.04980918 50.96214369 2.08591147 55.92413861 2.10986328 60.88647461 C2.11985897 62.57107075 2.13346004 64.25564981 2.15087891 65.94018555 C2.17541276 68.37553141 2.18654758 70.81064592 2.1953125 73.24609375 C2.20563507 73.98709824 2.21595764 74.72810272 2.22659302 75.49156189 C2.22769775 80.75747072 1.77796464 86.00464837 0 91 C-0.99 91.495 -0.99 91.495 -2 92 C-1.9285376 90.89998154 -1.8570752 89.79996307 -1.78344727 88.66661072 C-1.17002196 78.77913236 -0.86793583 68.94506622 -0.92483521 59.03964424 C-0.93793735 56.73963128 -0.94419515 54.43967774 -0.94897461 52.13963318 C-0.9602091 47.28056113 -0.97953429 42.42154072 -1 37.5625 C-1.02368926 31.87122415 -1.04396829 26.1799743 -1.05593872 20.48866081 C-1.06239884 18.22682353 -1.07488756 15.96507156 -1.08764648 13.70326233 C-1.09127619 12.32634555 -1.09462827 10.949428 -1.09765625 9.57250977 C-1.10289307 8.37215591 -1.10812988 7.17180206 -1.11352539 5.93507385 C-1 3 -1 3 0 0 Z " fill="#D9FEC8" transform="translate(53,173)"/>
<path d="M0 0 C-0.33 6.6 -0.66 13.2 -1 20 C-12.25 20.13392857 -12.25 20.13392857 -16 19 C-15.375 17.1875 -15.375 17.1875 -14 15 C-13.01 14.5875 -12.02 14.175 -11 13.75 C-7.93228607 12.37235042 -7.93228607 12.37235042 -7.26953125 10.17578125 C-6.96525862 8.7688454 -6.68258504 7.35706178 -6.421875 5.94140625 C-5.53102649 1.84185337 -4.19664579 0 0 0 Z " fill="#F9FDF7" transform="translate(379,220)"/>
<path d="M0 0 C5.28 0 10.56 0 16 0 C16.33 2.31 16.66 4.62 17 7 C17.66 7 18.32 7 19 7 C19.33 10.63 19.66 14.26 20 18 C18.35 17.67 16.7 17.34 15 17 C13 14 13 14 13 11 C12.34 11 11.68 11 11 11 C8.70460805 8.82232045 6.52749938 6.56807626 4.375 4.25 C2.90383382 2.74340914 2.90383382 2.74340914 0 2 C0 1.34 0 0.68 0 0 Z " fill="#F9FDF7" transform="translate(357,154)"/>
<path d="M0 0 C0.33 0 0.66 0 1 0 C1.17677373 12.09100859 1.34274234 24.18211199 1.49477577 36.27345848 C1.56570754 41.88747375 1.64041264 47.50138675 1.72363281 53.11523438 C1.8037525 58.52917405 1.87410207 63.9431593 1.93757248 69.35731888 C1.96356962 71.42670016 1.99313467 73.49603968 2.02626419 75.56531906 C2.0719366 78.45546472 2.10511525 81.34549646 2.13525391 84.23583984 C2.1517952 85.09826797 2.16833649 85.96069611 2.18537903 86.84925842 C2.20017563 88.90038323 2.11000847 90.95177392 2 93 C0 95 0 95 -3.625 95.125 C-4.73875 95.08375 -5.8525 95.0425 -7 95 C-7 94.67 -7 94.34 -7 94 C-5.02 94 -3.04 94 -1 94 C-1.00222061 92.95509903 -1.00444122 91.91019806 -1.00672913 90.83363342 C-1.02704569 80.96190564 -1.04201308 71.09018213 -1.05181217 61.21843815 C-1.0570194 56.14390755 -1.06407767 51.0693939 -1.07543945 45.99487305 C-1.08634528 41.0930356 -1.09229309 36.19121441 -1.09487724 31.28936577 C-1.09671766 29.42398256 -1.10031144 27.5586002 -1.10573006 25.69322395 C-1.11304274 23.0702844 -1.11398666 20.44741108 -1.11352539 17.82446289 C-1.11712067 17.0620076 -1.12071594 16.29955231 -1.12442017 15.51399231 C-1.11452304 10.27569477 -0.64898541 5.19877433 0 0 Z " fill="#F5FED3" transform="translate(94,186)"/>
<path d="M0 0 C0.68578125 -0.02900391 1.3715625 -0.05800781 2.078125 -0.08789062 C4.0859375 -0.11328125 4.0859375 -0.11328125 7.625 0.3125 C9.6015625 2.33203125 9.6015625 2.33203125 10.625 4.3125 C10.00625 3.9825 9.3875 3.6525 8.75 3.3125 C4.36288488 1.90862316 0.19348573 2.15282477 -4.375 2.3125 C-3.385 2.6425 -2.395 2.9725 -1.375 3.3125 C-0.38476595 7.43654007 -0.24824484 11.29830628 -0.24560547 15.53369141 C-0.24385315 16.24161331 -0.24210083 16.94953522 -0.24029541 17.6789093 C-0.23591173 20.00731899 -0.23880195 22.3356521 -0.2421875 24.6640625 C-0.24151361 26.28640762 -0.24054287 27.90875264 -0.23928833 29.53109741 C-0.23781621 32.92536382 -0.23995088 36.31960385 -0.24462891 39.71386719 C-0.25033502 44.06630353 -0.24703855 48.41867833 -0.24105644 52.77111244 C-0.2374455 56.11850449 -0.23859172 59.4658819 -0.24118423 62.81327438 C-0.24185155 64.41846092 -0.24103188 66.02364878 -0.23870468 67.62883377 C-0.23616844 69.86929098 -0.24003209 72.10964792 -0.24560547 74.35009766 C-0.24679886 76.26273911 -0.24679886 76.26273911 -0.24801636 78.21401978 C-0.375 81.3125 -0.375 81.3125 -1.375 84.3125 C-0.715 84.3125 -0.055 84.3125 0.625 84.3125 C0.625 85.3025 0.625 86.2925 0.625 87.3125 C-1.685 87.3125 -3.995 87.3125 -6.375 87.3125 C-6.045 85.6625 -5.715 84.0125 -5.375 82.3125 C-4.715 82.3125 -4.055 82.3125 -3.375 82.3125 C-2.27644121 78.73974847 -2.21584777 75.3767743 -2.16625977 71.65136719 C-2.15647598 70.99063705 -2.1466922 70.32990692 -2.13661194 69.64915466 C-2.1067751 67.46924826 -2.08530466 65.2894027 -2.06640625 63.109375 C-2.05983442 62.36178169 -2.0532626 61.61418839 -2.04649162 60.84394073 C-2.01394831 56.88605134 -1.98948603 52.92818829 -1.9699707 48.97021484 C-1.95217065 45.70516578 -1.9173663 42.44098253 -1.86743164 39.17626953 C-1.8070468 35.22283309 -1.77647105 31.27019793 -1.76679802 27.31632233 C-1.75827335 25.81565259 -1.73952902 24.31500256 -1.7100544 22.81459808 C-1.56298815 14.90180333 -1.46388639 8.63192573 -7.08433533 2.50933838 C-7.51025467 2.11438171 -7.93617401 1.71942505 -8.375 1.3125 C-6.3887131 -0.6737869 -2.70502678 0.03770948 0 0 Z " fill="#C2EBB1" transform="translate(393.375,152.6875)"/>
<path d="M0 0 C2.05078125 0.03255208 4.1015625 0.06510417 6.15234375 0.09765625 C6.15234375 0.42765625 6.15234375 0.75765625 6.15234375 1.09765625 C3.84234375 1.42765625 1.53234375 1.75765625 -0.84765625 2.09765625 C-0.87085568 11.25127809 -0.88861007 20.40488976 -0.89946842 29.55853462 C-0.90468062 33.80921596 -0.91174804 38.05987714 -0.9230957 42.31054688 C-0.93398371 46.41485669 -0.93994561 50.51914716 -0.94253349 54.62347031 C-0.94437709 56.1871051 -0.94797715 57.75073886 -0.95338631 59.31436539 C-0.96067526 61.5092419 -0.96164389 63.70403905 -0.96118164 65.89892578 C-0.96451256 67.77090134 -0.96451256 67.77090134 -0.96791077 69.68069458 C-0.85422172 72.9111023 -0.46037021 75.92773451 0.15234375 79.09765625 C1.63734375 79.59265625 1.63734375 79.59265625 3.15234375 80.09765625 C3.15234375 81.41765625 3.15234375 82.73765625 3.15234375 84.09765625 C-4.76765625 84.09765625 -12.68765625 84.09765625 -20.84765625 84.09765625 C-20.51765625 82.77765625 -20.18765625 81.45765625 -19.84765625 80.09765625 C-19.84765625 81.08765625 -19.84765625 82.07765625 -19.84765625 83.09765625 C-10.93765625 82.10765625 -10.93765625 82.10765625 -1.84765625 81.09765625 C-2.34265625 80.10765625 -2.34265625 80.10765625 -2.84765625 79.09765625 C-2.94568582 76.63119131 -2.98397999 74.19301249 -2.97705078 71.72631836 C-2.9788031 70.9668541 -2.98055542 70.20738983 -2.98236084 69.4249115 C-2.98677125 66.90825126 -2.9838445 64.39166098 -2.98046875 61.875 C-2.98114195 60.13147467 -2.98211211 58.38794944 -2.98336792 56.64442444 C-2.98484373 52.9884451 -2.9826938 49.33249018 -2.97802734 45.67651367 C-2.9723259 40.97964762 -2.97561242 36.28283866 -2.98159981 31.58597469 C-2.98520495 27.98559637 -2.98406712 24.3852317 -2.98147202 20.78485298 C-2.98080284 19.05241451 -2.98163086 17.31997481 -2.98395157 15.58753777 C-2.98647779 13.17152475 -2.98263815 10.7556056 -2.97705078 8.33959961 C-2.97907501 7.61697937 -2.98109924 6.89435913 -2.98318481 6.14984131 C-2.95737387 0.1563094 -2.95737387 0.1563094 0 0 Z " fill="#C4E8AF" transform="translate(505.84765625,155.90234375)"/>
<path d="M0 0 C0.70125 0.2475 1.4025 0.495 2.125 0.75 C2.125 1.41 2.125 2.07 2.125 2.75 C0.805 2.75 -0.515 2.75 -1.875 2.75 C-1.875 3.41 -1.875 4.07 -1.875 4.75 C-1.215 4.75 -0.555 4.75 0.125 4.75 C1.3513757 7.20275141 1.23915314 8.8005781 1.22265625 11.5390625 C1.21943359 12.48007813 1.21621094 13.42109375 1.21289062 14.390625 C1.20451172 15.37546875 1.19613281 16.3603125 1.1875 17.375 C1.18298828 18.36757812 1.17847656 19.36015625 1.17382812 20.3828125 C1.16202145 22.8386016 1.145554 25.29427104 1.125 27.75 C-0.875 25.75 -0.875 25.75 -1.10205078 23.68701172 C-1.09157715 22.85959473 -1.08110352 22.03217773 -1.0703125 21.1796875 C-1.06386719 20.28378906 -1.05742188 19.38789062 -1.05078125 18.46484375 C-1.03402344 17.52769531 -1.01726562 16.59054688 -1 15.625 C-0.99097656 14.68011719 -0.98195313 13.73523438 -0.97265625 12.76171875 C-0.94904522 10.42422708 -0.91611516 8.08723877 -0.875 5.75 C-1.61105469 6.15992187 -2.34710938 6.56984375 -3.10546875 6.9921875 C-4.08128906 7.53101562 -5.05710937 8.06984375 -6.0625 8.625 C-7.02542969 9.15867187 -7.98835938 9.69234375 -8.98046875 10.2421875 C-11.875 11.75 -11.875 11.75 -14.625 12.84375 C-16.99741875 13.79930755 -18.21827728 14.83168948 -19.875 16.75 C-20 10 -20 10 -18.875 7.75 C-17.885 7.75 -16.895 7.75 -15.875 7.75 C-15.875 8.41 -15.875 9.07 -15.875 9.75 C-14.885 9.75 -13.895 9.75 -12.875 9.75 C-12.545 8.76 -12.215 7.77 -11.875 6.75 C-11.215 6.75 -10.555 6.75 -9.875 6.75 C-9.545 5.76 -9.215 4.77 -8.875 3.75 C-3.87936681 -0.33733624 -3.87936681 -0.33733624 0 0 Z " fill="#E6FCE0" transform="translate(127.875,93.25)"/>
<path d="M0 0 C4.46165577 -0.05016131 8.92315374 -0.08607179 13.38500977 -0.10986328 C14.89675767 -0.11980161 16.40848699 -0.13335698 17.92016602 -0.15087891 C40.84637346 -0.40958818 40.84637346 -0.40958818 51 4 C50.67 4.66 50.34 5.32 50 6 C43.25 5.25 43.25 5.25 41 3 C37.41656024 2.83322718 37.41656024 2.83322718 34 3 C34 3.66 34 4.32 34 5 C36.475 5.495 36.475 5.495 39 6 C39.495 8.475 39.495 8.475 40 11 C39.13375 10.21625 38.2675 9.4325 37.375 8.625 C31.99733217 4.69473759 25.4468419 4.5990824 19 4 C19 3.67 19 3.34 19 3 C22.465 2.505 22.465 2.505 26 2 C18.74 1.67 11.48 1.34 4 1 C4.33 1.99 4.66 2.98 5 4 C5.0685495 5.89470816 5.08480372 7.7916834 5.0625 9.6875 C5.05347656 10.68136719 5.04445312 11.67523438 5.03515625 12.69921875 C5.02355469 13.45847656 5.01195312 14.21773437 5 15 C4.67 15 4.34 15 4 15 C3.67 11.7 3.34 8.4 3 5 C2.34 5 1.68 5 1 5 C0.67 3.35 0.34 1.7 0 0 Z " fill="#DDFBCD" transform="translate(240,153)"/>
<path d="M0 0 C0.99 0 1.98 0 3 0 C2.67 22.11 2.34 44.22 2 67 C1.34 67 0.68 67 0 67 C0 44.89 0 22.78 0 0 Z " fill="#D6F2CB" transform="translate(490,157)"/>
<path d="M0 0 C0.495 1.98 0.495 1.98 1 4 C-0.11375 4.61875 -0.11375 4.61875 -1.25 5.25 C-3.90171685 6.93745618 -5.86674014 8.70872089 -8 11 C-6.68 11.33 -5.36 11.66 -4 12 C-15.55 12 -27.1 12 -39 12 C-39 11.67 -39 11.34 -39 11 C-30.42 10.67 -21.84 10.34 -13 10 C-18.65337509 9.7121331 -18.65337509 9.7121331 -24.30712891 9.43188477 C-28.60486842 9.20311695 -32.76397107 8.81567547 -37 8 C-36.67 6.68 -36.34 5.36 -36 4 C-35.67 4.66 -35.34 5.32 -35 6 C-31.00025019 6.11710979 -27.00094719 6.18755489 -23 6.25 C-21.87464844 6.28351563 -20.74929688 6.31703125 -19.58984375 6.3515625 C-12.53265949 6.43410267 -7.98943292 5.81402568 -2 2 C-1.34 1.34 -0.68 0.68 0 0 Z " fill="#CAF0B9" transform="translate(371,228)"/>
<path d="M0 0 C6.93 0.495 6.93 0.495 14 1 C12.515 3.475 12.515 3.475 11 6 C10.01 6 9.02 6 8 6 C7.9175 6.515625 7.835 7.03125 7.75 7.5625 C6.67859775 11.04455732 4.86476395 13.87200885 3 17 C1.68 16.67 0.36 16.34 -1 16 C-0.67 10.72 -0.34 5.44 0 0 Z " fill="#F9FDF7" transform="translate(464,153)"/>
<path d="M0 0 C2.61032248 2.19840989 3.82706896 3.99199406 4.40820312 7.37939453 C4.61781039 10.19535622 4.70828494 12.98914881 4.75 15.8125 C4.77964844 16.79154297 4.80929688 17.77058594 4.83984375 18.77929688 C4.91029202 21.18627953 4.96311025 23.5923079 5 26 C2 25 2 25 0 22 C-0.484375 18.8203125 -0.484375 18.8203125 -0.75 15.125 C-0.84796875 13.91070312 -0.9459375 12.69640625 -1.046875 11.4453125 C-1 8 -1 8 1 3 C-2.63 3.33 -6.26 3.66 -10 4 C-10.33 6.31 -10.66 8.62 -11 11 C-11.33 11 -11.66 11 -12 11 C-12.48241206 3.64321608 -12.48241206 3.64321608 -10.5 1 C-7.04868326 -0.3805267 -3.6203573 -1.07479357 0 0 Z " fill="#EBFBE6" transform="translate(141,254)"/>
<path d="M0 0 C7.59 0 15.18 0 23 0 C23 4 23 4 21.52702332 5.81427002 C19.37266824 8.89794165 19.60076566 11.23363409 19.56762695 14.97167969 C19.5574353 15.6647673 19.54724365 16.35785492 19.53674316 17.07194519 C19.50662809 19.35533751 19.4973499 21.63831023 19.48828125 23.921875 C19.47143339 25.50800977 19.45328299 27.0941312 19.43388367 28.68023682 C19.38638889 32.84930248 19.35657631 37.01831403 19.33044434 41.18756104 C19.30063608 45.44415979 19.25410669 49.70057216 19.20898438 53.95703125 C19.12295724 62.30459591 19.05560951 70.65217755 19 79 C18.67 79 18.34 79 18 79 C17.97684592 69.66418209 17.95906924 60.32837403 17.94818783 50.99253368 C17.94296573 46.65769119 17.93588024 42.32286831 17.92456055 37.98803711 C17.91370783 33.80593485 17.90771808 29.62385148 17.90512276 25.44173622 C17.90327282 23.84491999 17.89966045 22.24810482 17.89426994 20.65129662 C17.8870279 18.41749194 17.8860104 16.18376567 17.88647461 13.94995117 C17.884254 12.67754074 17.88203339 11.40513031 17.87974548 10.09416199 C18 7 18 7 19 4 C19.66 4 20.32 4 21 4 C21 3.01 21 2.02 21 1 C14.4 1 7.8 1 1 1 C1.66 1.99 2.32 2.98 3 4 C2.67 4.99 2.34 5.98 2 7 C0.4375 5.1875 0.4375 5.1875 -1 3 C-0.67 2.01 -0.34 1.02 0 0 Z " fill="#C12F06" transform="translate(537,153)"/>
<path d="M0 0 C-2.36292656 2.52588702 -3.66462511 3.88820837 -7 5 C-8.15291684 7.30583369 -8.15397338 8.69866887 -8.20532227 11.26611328 C-8.22526749 12.14687531 -8.24521271 13.02763733 -8.26576233 13.93508911 C-8.28247482 14.88721283 -8.29918732 15.83933655 -8.31640625 16.8203125 C-8.33718735 17.79410858 -8.35796844 18.76790466 -8.37937927 19.77120972 C-8.44488598 22.88906647 -8.50376497 26.00700903 -8.5625 29.125 C-8.60568415 31.23568604 -8.6492984 33.34636333 -8.69335938 35.45703125 C-8.80056847 40.6379295 -8.90233278 45.81891356 -9 51 C-9.99 51.495 -9.99 51.495 -11 52 C-11.02477561 45.98600564 -11.04289587 39.97204119 -11.05493164 33.95800781 C-11.05995086 31.91340619 -11.06676762 29.86880814 -11.07543945 27.82421875 C-11.08761074 24.88019935 -11.09325252 21.93622753 -11.09765625 18.9921875 C-11.10281754 18.0825827 -11.10797882 17.17297791 -11.11329651 16.23580933 C-11.11369186 11.73206824 -11.07877965 7.40262251 -10 3 C-8.22265625 1.50390625 -8.22265625 1.50390625 -6.0625 0.5625 C-4.99708984 0.06943359 -4.99708984 0.06943359 -3.91015625 -0.43359375 C-2 -1 -2 -1 0 0 Z " fill="#F5FEED" transform="translate(64,168)"/>
<path d="M0 0 C0.66 0 1.32 0 2 0 C2 0.99 2 1.98 2 3 C2.66 3 3.32 3 4 3 C4.391875 3.928125 4.78375 4.85625 5.1875 5.8125 C7.16742853 9.29444328 8.66324642 10.01598436 12 12 C12 13.32 12 14.64 12 16 C8.37 16 4.74 16 1 16 C1 15.01 1 14.02 1 13 C0.34 13 -0.32 13 -1 13 C-0.67 8.71 -0.34 4.42 0 0 Z " fill="#D6F2C8" transform="translate(393,224)"/>
<path d="M0 0 C20.79 0 41.58 0 63 0 C63 0.33 63 0.66 63 1 C47.49 1 31.98 1 16 1 C16 1.66 16 2.32 16 3 C18.64 3 21.28 3 24 3 C24 3.33 24 3.66 24 4 C23.11957031 4.12117187 22.23914063 4.24234375 21.33203125 4.3671875 C20.17058594 4.53476563 19.00914062 4.70234375 17.8125 4.875 C16.66394531 5.03742188 15.51539063 5.19984375 14.33203125 5.3671875 C11.31275375 5.94060245 8.79424152 6.74759043 6 8 C6 7.34 6 6.68 6 6 C6.99 6 7.98 6 9 6 C9.33 4.68 9.66 3.36 10 2 C6.7 1.67 3.4 1.34 0 1 C0 0.67 0 0.34 0 0 Z " fill="#D6FFC1" transform="translate(466,153)"/>
<path d="M0 0 C5.61 0 11.22 0 17 0 C16 3 16 3 12.75 4.625 C9.77819323 5.71466248 7.11367888 6.52823047 4 7 C3.67 7.99 3.34 8.98 3 10 C2.34 10 1.68 10 1 10 C0 8 0 8 0 0 Z " fill="#E91A05" transform="translate(568,155)"/>
<path d="M0 0 C1.125 3.75 1.125 3.75 0 6 C5.22745859 7.2063366 9.76528314 6.75612577 15 6 C15 4.35 15 2.7 15 1 C15.66 1 16.32 1 17 1 C17 1.99 17 2.98 17 4 C18.32 4.33 19.64 4.66 21 5 C21 6.32 21 7.64 21 9 C12.85351368 9.76299944 5.11388044 10.21521251 -3 9 C-3.33 7.68 -3.66 6.36 -4 5 C-3.01 4.67 -2.02 4.34 -1 4 C-0.26676204 1.98491642 -0.26676204 1.98491642 0 0 Z " fill="#D33210" transform="translate(540,231)"/>
<path d="M0 0 C5.94 0 11.88 0 18 0 C18 1.32 18 2.64 18 4 C17.34 4 16.68 4 16 4 C15.01 7.63 14.02 11.26 13 15 C12.67 15 12.34 15 12 15 C12 11.7 12 8.4 12 5 C12.99 5 13.98 5 15 5 C15 4.01 15 3.02 15 2 C11.7 2 8.4 2 5 2 C5.7734375 3.175625 5.7734375 3.175625 6.5625 4.375 C7.036875 5.24125 7.51125 6.1075 8 7 C7.67 7.66 7.34 8.32 7 9 C5.82460004 8.07347299 4.65989423 7.13336613 3.5 6.1875 C2.52546875 5.40439453 2.52546875 5.40439453 1.53125 4.60546875 C0 3 0 3 0 0 Z " fill="#D5F7C8" transform="translate(441,153)"/>
<path d="M0 0 C15.18 0 30.36 0 46 0 C45.67 0.99 45.34 1.98 45 3 C45 2.34 45 1.68 45 1 C43.24967156 1.14183696 41.49974466 1.28863429 39.75 1.4375 C38.28820312 1.55931641 38.28820312 1.55931641 36.796875 1.68359375 C34.10157109 1.9228883 34.10157109 1.9228883 31.9375 2.53125 C29.65296874 3.08395918 27.59708465 3.09701595 25.25 3.0625 C24.45078125 3.05347656 23.6515625 3.04445312 22.828125 3.03515625 C22.22484375 3.02355469 21.6215625 3.01195312 21 3 C21 2.34 21 1.68 21 1 C19.20793453 1.14084796 17.41635083 1.28783701 15.625 1.4375 C14.12839844 1.55931641 14.12839844 1.55931641 12.6015625 1.68359375 C10.02072387 1.84965626 10.02072387 1.84965626 8 3 C5.30434798 2.83219837 2.67594446 2.38844355 0 2 C0 1.34 0 0.68 0 0 Z " fill="#F5FEEF" transform="translate(482,154)"/>
<path d="M0 0 C1.32 0 2.64 0 4 0 C4 7.26 4 14.52 4 22 C2.35 21.67 0.7 21.34 -1 21 C-1 20.34 -1 19.68 -1 19 C-0.34 19 0.32 19 1 19 C1 14.05 1 9.1 1 4 C0.34 5.32 -0.32 6.64 -1 8 C-2.65 8 -4.3 8 -6 8 C-4.73046875 6.50260417 -3.4609375 5.00520833 -2.19140625 3.5078125 C-0.9121848 1.99405921 -0.9121848 1.99405921 0 0 Z " fill="#CFF3BB" transform="translate(365,182)"/>
<path d="M0 0 C0.66 0 1.32 0 2 0 C2.33 1.98 2.66 3.96 3 6 C3.99 6.33 4.98 6.66 6 7 C6 8.32 6 9.64 6 11 C-1.92 11 -9.84 11 -18 11 C-17.67 9.68 -17.34 8.36 -17 7 C-17 7.99 -17 8.98 -17 10 C-8.09 9.01 -8.09 9.01 1 8 C0.67 7.34 0.34 6.68 0 6 C-0.039992 4.00039988 -0.04346799 1.99952758 0 0 Z " fill="#D5F1C7" transform="translate(503,229)"/>
<path d="M0 0 C0.33 0 0.66 0 1 0 C1.19632025 3.6245793 1.38055978 7.24967267 1.5625 10.875 C1.61857422 11.90753906 1.67464844 12.94007813 1.73242188 14.00390625 C1.78076172 14.99003906 1.82910156 15.97617188 1.87890625 16.9921875 C1.9260376 17.90339355 1.97316895 18.81459961 2.02172852 19.75341797 C2 22 2 22 1 24 C0.01 24 -0.98 24 -2 24 C-5 20.66666667 -5 20.66666667 -5 18 C-5.99 17.67 -6.98 17.34 -8 17 C-9.1875 14.4375 -9.1875 14.4375 -10 12 C-8.02 12.99 -8.02 12.99 -6 14 C-6 14.66 -6 15.32 -6 16 C-5.34 16 -4.68 16 -4 16 C-4 16.66 -4 17.32 -4 18 C-3.01 18 -2.02 18 -1 18 C-1.020625 16.700625 -1.04125 15.40125 -1.0625 14.0625 C-1.07004972 9.30617675 -0.59887117 4.71611047 0 0 Z " fill="#D9F4CC" transform="translate(453,217)"/>
<path d="M0 0 C-0.99 0.99 -1.98 1.98 -3 3 C-1.35 3.99 0.3 4.98 2 6 C1.01 6.495 1.01 6.495 0 7 C-0.66386719 6.70351562 -1.32773437 6.40703125 -2.01171875 6.1015625 C-6.24388708 4.54146907 -10.33435542 4.53529153 -14.8125 4.375 C-15.69615234 4.33632812 -16.57980469 4.29765625 -17.49023438 4.2578125 C-19.65982972 4.16399216 -21.82988547 4.08092674 -24 4 C-24 3.67 -24 3.34 -24 3 C-16.08 2.505 -16.08 2.505 -8 2 C-13.28 1.67 -18.56 1.34 -24 1 C-24 0.67 -24 0.34 -24 0 C-20.3754207 -0.19632025 -16.75032733 -0.38055978 -13.125 -0.5625 C-12.09246094 -0.61857422 -11.05992187 -0.67464844 -9.99609375 -0.73242188 C-8.51689453 -0.80493164 -8.51689453 -0.80493164 -7.0078125 -0.87890625 C-6.09660645 -0.9260376 -5.18540039 -0.97316895 -4.24658203 -1.02172852 C-2 -1 -2 -1 0 0 Z " fill="#BEECA9" transform="translate(359,191)"/>
<path d="M0 0 C0.33 0 0.66 0 1 0 C1.84062776 4.36893737 2.11732956 8.4835198 2.09765625 12.9296875 C2.09282227 14.86328125 2.09282227 14.86328125 2.08789062 16.8359375 C2.07953733 18.18229236 2.07107241 19.52864652 2.0625 20.875 C2.0574783 22.24479004 2.05291657 23.61458185 2.04882812 24.984375 C2.03707254 28.3229619 2.02063964 31.66145815 2 35 C-0.92476771 32.07523229 -0.99317115 29.9793647 -1.02172852 25.88378906 C-0.97459717 24.68979492 -0.92746582 23.49580078 -0.87890625 22.265625 C-0.80639648 20.32236328 -0.80639648 20.32236328 -0.73242188 18.33984375 C-0.67590496 16.97655737 -0.61926274 15.61327617 -0.5625 14.25 C-0.50924178 12.87111388 -0.45650166 11.49220765 -0.40429688 10.11328125 C-0.27463047 6.74195467 -0.13966346 3.37092482 0 0 Z " fill="#E6FDE0" transform="translate(107,244)"/>
<path d="M0 0 C3.3 0 6.6 0 10 0 C10 0.99 10 1.98 10 3 C9.01 3 8.02 3 7 3 C7 5.97 7 8.94 7 12 C6.34 10.68 5.68 9.36 5 8 C4.01 7.67 3.02 7.34 2 7 C0.35179805 4.39757586 0 3.13751221 0 0 Z " fill="#FBFDF7" transform="translate(446,155)"/>
<path d="M0 0 C0.33 0 0.66 0 1 0 C1 14.85 1 29.7 1 45 C0.01 45 -0.98 45 -2 45 C-1.93433838 44.33387695 -1.86867676 43.66775391 -1.80102539 42.98144531 C-0.97020031 33.90874389 -0.67995568 24.85247897 -0.4375 15.75 C-0.39418051 14.21483525 -0.35056263 12.67967888 -0.30664062 11.14453125 C-0.20099557 7.42977765 -0.09935866 3.7149277 0 0 Z " fill="#CCF0BF" transform="translate(96,107)"/>
<path d="M0 0 C4.29 0 8.58 0 13 0 C13 2.64 13 5.28 13 8 C12.01 8 11.02 8 10 8 C10 7.01 10 6.02 10 5 C8.68 5 7.36 5 6 5 C6 4.34 6 3.68 6 3 C4.68 3 3.36 3 2 3 C2 2.34 2 1.68 2 1 C1.34 0.67 0.68 0.34 0 0 Z " fill="#F50501" transform="translate(617,155)"/>
<path d="M0 0 C0.99 0 1.98 0 3 0 C2.67 6.6 2.34 13.2 2 20 C-0.64 20 -3.28 20 -6 20 C-6 19.67 -6 19.34 -6 19 C-3.69 19 -1.38 19 1 19 C0.67 15.04 0.34 11.08 0 7 C-1.32 7.33 -2.64 7.66 -4 8 C-2.87548273 5.0280615 -1.77706209 2.66559313 0 0 Z " fill="#D2F4C5" transform="translate(376,220)"/>
<path d="M0 0 C0.66 0 1.32 0 2 0 C3.19287411 3.87684087 4 6.91621923 4 11 C4.66 11.33 5.32 11.66 6 12 C5.01 12.33 4.02 12.66 3 13 C3 13.99 3 14.98 3 16 C2.34 16 1.68 16 1 16 C1 15.01 1 14.02 1 13 C0.34 13 -0.32 13 -1 13 C-0.67 8.71 -0.34 4.42 0 0 Z " fill="#FAFDF8" transform="translate(393,224)"/>
<path d="M0 0 C2.475 0.495 2.475 0.495 5 1 C5 1.99 5 2.98 5 4 C5.99 4 6.98 4 8 4 C8 4.66 8 5.32 8 6 C8.66 6 9.32 6 10 6 C10.33 4.35 10.66 2.7 11 1 C11.33 1 11.66 1 12 1 C12.33 4.63 12.66 8.26 13 12 C11.35 11.67 9.7 11.34 8 11 C6 8 6 8 6 5 C5.34 5 4.68 5 4 5 C2.61767557 3.37373596 1.28062485 1.7074998 0 0 Z " fill="#CEF1B5" transform="translate(364,160)"/>
<path d="M0 0 C0.33 0 0.66 0 1 0 C1.33 4.95 1.66 9.9 2 15 C0.68 15 -0.64 15 -2 15 C-3.30859375 13.609375 -3.30859375 13.609375 -4.4375 11.75 C-6.56757637 8.488734 -8.80254074 6.28389947 -12 4 C-10.68 4 -9.36 4 -8 4 C-8 4.66 -8 5.32 -8 6 C-6.68 6 -5.36 6 -4 6 C-3.71125 6.804375 -3.4225 7.60875 -3.125 8.4375 C-2.26737432 11.1326468 -2.26737432 11.1326468 0 12 C0 8.04 0 4.08 0 0 Z " fill="#CA5415" transform="translate(631,154)"/>
<path d="M0 0 C0.33 0.66 0.66 1.32 1 2 C1.99 2.33 2.98 2.66 4 3 C4 4.32 4 5.64 4 7 C-4.25 7 -12.5 7 -21 7 C-20.67 5.35 -20.34 3.7 -20 2 C-19.34 2.33 -18.68 2.66 -18 3 C-18.33 3.99 -18.66 4.98 -19 6 C-9.595 5.505 -9.595 5.505 0 5 C0 3.35 0 1.7 0 0 Z " fill="#BB5421" transform="translate(608,233)"/>
<path d="M0 0 C7.59 0 15.18 0 23 0 C23 4 23 4 21 6.25 C20.01 7.11625 20.01 7.11625 19 8 C19 6.68 19 5.36 19 4 C19.66 4 20.32 4 21 4 C21 3.01 21 2.02 21 1 C14.4 1 7.8 1 1 1 C1.66 1.99 2.32 2.98 3 4 C2.67 4.99 2.34 5.98 2 7 C0.4375 5.1875 0.4375 5.1875 -1 3 C-0.67 2.01 -0.34 1.02 0 0 Z " fill="#A95E1C" transform="translate(537,153)"/>
<path d="M0 0 C2 1.5 2 1.5 3 3 C2.34 4.32 1.68 5.64 1 7 C1 5.68 1 4.36 1 3 C-2.63 3.33 -6.26 3.66 -10 4 C-10.33 6.31 -10.66 8.62 -11 11 C-11.33 11 -11.66 11 -12 11 C-12.48241206 3.64321608 -12.48241206 3.64321608 -10.5 1 C-6.74404458 -0.50238217 -4.04953637 -0.38567013 0 0 Z " fill="#DAF7D1" transform="translate(141,254)"/>
<path d="M0 0 C0.33 0 0.66 0 1 0 C1.00386719 1.22976562 1.00386719 1.22976562 1.0078125 2.484375 C1.02356041 9.32709942 1.02356041 9.32709942 4.8125 14.625 C5.864375 15.07875 6.91625 15.5325 8 16 C8.78375 16.4125 9.5675 16.825 10.375 17.25 C10.91125 17.4975 11.4475 17.745 12 18 C10.2578125 18.6796875 10.2578125 18.6796875 8 19 C5.9296875 17.8203125 5.9296875 17.8203125 3.875 16.125 C1.08587981 13.83293649 1.08587981 13.83293649 -2 12 C-2.17835515 7.45194365 -1.99785435 4.1205746 0 0 Z " fill="#D6FCD0" transform="translate(163,193)"/>
<path d="M0 0 C1.3921875 0.2784375 1.3921875 0.2784375 2.8125 0.5625 C3.4725 1.5525 4.1325 2.5425 4.8125 3.5625 C3.4925 3.5625 2.1725 3.5625 0.8125 3.5625 C0.8125 2.9025 0.8125 2.2425 0.8125 1.5625 C0.1525 1.5625 -0.5075 1.5625 -1.1875 1.5625 C-1.496875 2.18125 -1.80625 2.8 -2.125 3.4375 C-2.8125 4.8125 -3.5 6.1875 -4.1875 7.5625 C-4.8475 7.5625 -5.5075 7.5625 -6.1875 7.5625 C-6.5175 8.5525 -6.8475 9.5425 -7.1875 10.5625 C-8.1775 10.5625 -9.1675 10.5625 -10.1875 10.5625 C-8.10748763 5.64610712 -5.49499708 0.96970537 0 0 Z " fill="#D8F9CE" transform="translate(43.1875,255.4375)"/>
<path d="M0 0 C0.68578125 -0.02900391 1.3715625 -0.05800781 2.078125 -0.08789062 C4.0859375 -0.11328125 4.0859375 -0.11328125 7.625 0.3125 C9.6015625 2.33203125 9.6015625 2.33203125 10.625 4.3125 C10.00625 3.9825 9.3875 3.6525 8.75 3.3125 C4.36288488 1.90862316 0.19348573 2.15282477 -4.375 2.3125 C-3.385 2.6425 -2.395 2.9725 -1.375 3.3125 C-1.375 4.6325 -1.375 5.9525 -1.375 7.3125 C-4.74220387 5.91917426 -6.3609524 4.3335714 -8.375 1.3125 C-6.3887131 -0.6737869 -2.70502678 0.03770948 0 0 Z " fill="#CFFCC3" transform="translate(393.375,152.6875)"/>
<path d="M0 0 C4.21365599 6.32048399 1.95026254 15.75424812 1 23 C-0.32 23.33 -1.64 23.66 -3 24 C-2.67854004 23.43829102 -2.35708008 22.87658203 -2.02587891 22.29785156 C-0.90241943 19.78143067 -0.69140607 17.97655795 -0.5859375 15.234375 C-0.54726562 14.34492188 -0.50859375 13.45546875 -0.46875 12.5390625 C-0.4378125 11.61867188 -0.406875 10.69828125 -0.375 9.75 C-0.33632812 8.81414062 -0.29765625 7.87828125 -0.2578125 6.9140625 C-0.16375156 4.60956946 -0.07810601 2.30507987 0 0 Z " fill="#ECFDE2" transform="translate(149,258)"/>
<path d="M0 0 C0.33 0 0.66 0 1 0 C1.38678091 16.30926153 1.38678091 16.30926153 -1 24 C-1.66 24.33 -2.32 24.66 -3 25 C-2.68889371 22.14567529 -2.37615574 19.29154475 -2.0625 16.4375 C-1.97548828 15.63763672 -1.88847656 14.83777344 -1.79882812 14.01367188 C-1.28238548 9.32743303 -0.69478469 4.66319454 0 0 Z " fill="#E9FCDF" transform="translate(54,240)"/>
<path d="M0 0 C0.33 0 0.66 0 1 0 C1.33 3.63 1.66 7.26 2 11 C2.99 10.01 3.98 9.02 5 8 C5.66 8.33 6.32 8.66 7 9 C6.34 10.32 5.68 11.64 5 13 C4.34 13 3.68 13 3 13 C2.67 13.99 2.34 14.98 2 16 C1.01 15.67 0.02 15.34 -1 15 C-0.67 10.05 -0.34 5.1 0 0 Z " fill="#C04D14" transform="translate(567,154)"/>
<path d="M0 0 C0.33 0 0.66 0 1 0 C1.33 3.96 1.66 7.92 2 12 C2.66 12 3.32 12 4 12 C3.67 10.35 3.34 8.7 3 7 C4.32 7.66 5.64 8.32 7 9 C5.68 11.31 4.36 13.62 3 16 C1.68 15.67 0.36 15.34 -1 15 C-0.67 10.05 -0.34 5.1 0 0 Z " fill="#B9E0A5" transform="translate(464,154)"/>
<path d="M0 0 C0 0.66 0 1.32 0 2 C2.64 2 5.28 2 8 2 C8 2.33 8 2.66 8 3 C7.11957031 3.12117187 6.23914063 3.24234375 5.33203125 3.3671875 C4.17058594 3.53476563 3.00914062 3.70234375 1.8125 3.875 C0.08966797 4.11863281 0.08966797 4.11863281 -1.66796875 4.3671875 C-4.68724625 4.94060245 -7.20575848 5.74759043 -10 7 C-10 6.34 -10 5.68 -10 5 C-9.01 5 -8.02 5 -7 5 C-6.87625 4.360625 -6.7525 3.72125 -6.625 3.0625 C-6.41875 2.381875 -6.2125 1.70125 -6 1 C-4 0 -4 0 0 0 Z " fill="#DDF8CA" transform="translate(482,154)"/>
<path d="M0 0 C0.33 0 0.66 0 1 0 C1.33 3.63 1.66 7.26 2 11 C1.34 11 0.68 11 0 11 C0 12.32 0 13.64 0 15 C-1.32 15 -2.64 15 -4 15 C-3.67 13.35 -3.34 11.7 -3 10 C-2.34 10 -1.68 10 -1 10 C-0.67 6.7 -0.34 3.4 0 0 Z " fill="#D4F2C6" transform="translate(244,225)"/>
<path d="M0 0 C-0.99 0 -1.98 0 -3 0 C-3 0.66 -3 1.32 -3 2 C-1.9171875 2.12375 -1.9171875 2.12375 -0.8125 2.25 C2.61227126 3.16327234 4.47007429 4.54235788 7 7 C7 7.99 7 8.98 7 10 C6.01 9.67 5.02 9.34 4 9 C4 8.01 4 7.02 4 6 C3.46375 5.896875 2.9275 5.79375 2.375 5.6875 C-0.62502044 4.81907303 -3.2379535 3.44379704 -6 2 C-6 1.34 -6 0.68 -6 0 C-3.50907189 -1.24546405 -2.58919267 -0.7767578 0 0 Z " fill="#D0F3BE" transform="translate(284,194)"/>
<path d="M0 0 C1.125 3.75 1.125 3.75 0 6 C3.3 6.99 6.6 7.98 10 9 C6.79984144 10.06671952 5.11455706 9.94845472 1.8125 9.5625 C0.91144531 9.46066406 0.01039063 9.35882813 -0.91796875 9.25390625 C-1.60503906 9.17011719 -2.29210937 9.08632812 -3 9 C-3.33 7.68 -3.66 6.36 -4 5 C-3.01 4.67 -2.02 4.34 -1 4 C-0.26676204 1.98491642 -0.26676204 1.98491642 0 0 Z " fill="#C86619" transform="translate(540,231)"/>
<path d="M0 0 C0.33 0.66 0.66 1.32 1 2 C0.67 2.99 0.34 3.98 0 5 C0.66 5 1.32 5 2 5 C2 5.99 2 6.98 2 8 C-0.31 8 -2.62 8 -5 8 C-4.67 6.35 -4.34 4.7 -4 3 C-3.34 3 -2.68 3 -2 3 C-2 2.34 -2 1.68 -2 1 C-1.34 0.67 -0.68 0.34 0 0 Z " fill="#D9F2CB" transform="translate(392,232)"/>
<path d="M0 0 C2.31 0.33 4.62 0.66 7 1 C6.01 1.33 5.02 1.66 4 2 C4 5.63 4 9.26 4 13 C3.01 13.33 2.02 13.66 1 14 C0.67 9.38 0.34 4.76 0 0 Z " fill="#F2FEEB" transform="translate(464,153)"/>
<path d="M0 0 C7.26 0 14.52 0 22 0 C22 0.66 22 1.32 22 2 C22.66 2.33 23.32 2.66 24 3 C21.36 3 18.72 3 16 3 C16 2.67 16 2.34 16 2 C10.72 1.67 5.44 1.34 0 1 C0 0.67 0 0.34 0 0 Z " fill="#CE2807" transform="translate(568,154)"/>
<path d="M0 0 C-2 2 -2 2 -4.9375 3.6875 C-8.75460666 6.56980503 -9.46341461 8.56097554 -11 13 C-11.66 13 -12.32 13 -13 13 C-11.81693963 8.49859956 -10.83325187 4.89903492 -7.625 1.4375 C-4.78031107 -0.12030584 -3.1895979 -0.36452547 0 0 Z " fill="#E3FBDB" transform="translate(209,248)"/>
<path d="M0 0 C0 0.66 0 1.32 0 2 C-0.94875 2.45375 -1.8975 2.9075 -2.875 3.375 C-6.00313679 4.80238254 -6.00313679 4.80238254 -8 7 C-11.625 7.125 -11.625 7.125 -15 7 C-11.19791273 3.69383716 -5.16418515 0 0 0 Z " fill="#E2FCD8" transform="translate(123,87)"/>
<path d="M0 0 C0.99 0.33 1.98 0.66 3 1 C2.34 1.66 1.68 2.32 1 3 C0.01 3 -0.98 3 -2 3 C-1.814375 3.5775 -1.62875 4.155 -1.4375 4.75 C-0.95976454 7.20692525 -1.24270636 8.64397534 -2 11 C-2.66 11 -3.32 11 -4 11 C-4.8125 8.3125 -4.8125 8.3125 -5 5 C-2.5625 2.125 -2.5625 2.125 0 0 Z " fill="#E1FED5" transform="translate(115,207)"/>
<path d="M0 0 C0.66 0.33 1.32 0.66 2 1 C2 5.95 2 10.9 2 16 C1.67 16 1.34 16 1 16 C0.67 13.03 0.34 10.06 0 7 C-0.66 7.66 -1.32 8.32 -2 9 C-2.25 3.375 -2.25 3.375 0 0 Z " fill="#E3FCDC" transform="translate(106,110)"/>
<path d="M0 0 C3.77545388 1.09068668 6.47043472 1.9083091 9 5 C6.8125 5.8125 6.8125 5.8125 4 6 C1.1875 3.5625 1.1875 3.5625 -1 1 C-0.67 0.67 -0.34 0.34 0 0 Z " fill="#E7FDE1" transform="translate(152,96)"/>
<path d="M0 0 C0.33 0 0.66 0 1 0 C1.33 2.31 1.66 4.62 2 7 C3.32 7.33 4.64 7.66 6 8 C6.33 9.32 6.66 10.64 7 12 C4 12 4 12 1.8125 10.5 C-0.81124472 6.88104177 -0.29356276 4.40344138 0 0 Z " fill="#E0FAD6" transform="translate(32,266)"/>
<path d="M0 0 C0.33 0 0.66 0 1 0 C1 4.62 1 9.24 1 14 C0.01 14 -0.98 14 -2 14 C-1.85923685 12.0412957 -1.7122324 10.08303907 -1.5625 8.125 C-1.48128906 7.03445312 -1.40007812 5.94390625 -1.31640625 4.8203125 C-1 2 -1 2 0 0 Z " fill="#DBF9D1" transform="translate(96,138)"/>
<path d="M0 0 C0.66 0 1.32 0 2 0 C2.14285714 8.57142857 2.14285714 8.57142857 1 12 C-0.32 11.67 -1.64 11.34 -3 11 C-2.34 11 -1.68 11 -1 11 C-0.67 7.37 -0.34 3.74 0 0 Z " fill="#DAF5D3" transform="translate(489,224)"/>
<path d="M0 0 C0 0.99 0 1.98 0 3 C-4.62 2.34 -9.24 1.68 -14 1 C-14 0.67 -14 0.34 -14 0 C-12.42074025 -0.39180108 -10.83631206 -0.76280736 -9.25 -1.125 C-8.36828125 -1.33382812 -7.4865625 -1.54265625 -6.578125 -1.7578125 C-3.67124507 -2.03088304 -2.43338652 -1.53508028 0 0 Z " fill="#DEF4CF" transform="translate(273,195)"/>
<path d="M0 0 C0.66 1.32 1.32 2.64 2 4 C2.66 4.33 3.32 4.66 4 5 C4 5.99 4 6.98 4 8 C3.34 8 2.68 8 2 8 C2 9.32 2 10.64 2 12 C1.34 12 0.68 12 0 12 C0 8.04 0 4.08 0 0 Z " fill="#F5F9F3" transform="translate(189,256)"/>
<path d="M0 0 C3 1 3 1 4.203125 3.21484375 C4.54859375 4.11332031 4.8940625 5.01179687 5.25 5.9375 C5.78367187 7.28134766 5.78367187 7.28134766 6.328125 8.65234375 C7 11 7 11 6 13 C4.99491199 11.21118264 3.99607264 9.41885304 3 7.625 C2.1646875 6.12839844 2.1646875 6.12839844 1.3125 4.6015625 C0 2 0 2 0 0 Z " fill="#D2F2BD" transform="translate(285,223)"/>
<path d="M0 0 C2.22265625 1.546875 2.22265625 1.546875 4 3 C2.04098546 2.88617347 0.0827662 2.75858875 -1.875 2.625 C-2.96554688 2.55539063 -4.05609375 2.48578125 -5.1796875 2.4140625 C-8 2 -8 2 -10 0 C-6.2195649 -1.26014503 -3.87795389 -0.81641135 0 0 Z " fill="#E2FAD7" transform="translate(133,86)"/>
<path d="M0 0 C0 0.66 0 1.32 0 2 C-2.90600261 3.25664978 -4.79604584 4 -8 4 C-8.33 4.99 -8.66 5.98 -9 7 C-9.33 5.68 -9.66 4.36 -10 3 C-3.375 0 -3.375 0 0 0 Z " fill="#E6FEDD" transform="translate(36,280)"/>
<path d="M0 0 C0.33 0 0.66 0 1 0 C1.33 4.95 1.66 9.9 2 15 C0.68 15 -0.64 15 -2 15 C-2 14.34 -2 13.68 -2 13 C-1.34 12.67 -0.68 12.34 0 12 C0 8.04 0 4.08 0 0 Z " fill="#BA5C19" transform="translate(631,154)"/>
<path d="M0 0 C1.45922693 0.11409593 2.91740598 0.24165544 4.375 0.375 C5.59316406 0.47941406 5.59316406 0.47941406 6.8359375 0.5859375 C9 1 9 1 11 3 C10.625 5.125 10.625 5.125 10 7 C9.649375 6.566875 9.29875 6.13375 8.9375 5.6875 C6.21514365 3.31641544 3.35241784 2.3283165 0 1 C0 0.67 0 0.34 0 0 Z " fill="#C8F2BB" transform="translate(269,157)"/>
<path d="M0 0 C0.33 0 0.66 0 1 0 C1.28571429 8.57142857 1.28571429 8.57142857 -1 12 C-1.33 12 -1.66 12 -2 12 C-2.17835515 7.45194365 -1.99785435 4.1205746 0 0 Z " fill="#FAFFC6" transform="translate(163,193)"/>
<path d="M0 0 C0.66 0 1.32 0 2 0 C4.40240978 3.02525676 5.05541631 4.4125871 4.6875 8.3125 C4.460625 9.199375 4.23375 10.08625 4 11 C2.03698408 7.49461443 1.04097612 3.86648272 0 0 Z " fill="#E7FCDD" transform="translate(449,163)"/>
<path d="M0 0 C0.33 0 0.66 0 1 0 C1.33 2.31 1.66 4.62 2 7 C0.35 7 -1.3 7 -3 7 C-2.25 2.25 -2.25 2.25 0 0 Z " fill="#DB1804" transform="translate(592,232)"/>
<path d="M0 0 C1.9375 0.3125 1.9375 0.3125 4 1 C4.33 1.99 4.66 2.98 5 4 C6.49985609 5.66710346 6.49985609 5.66710346 8 7 C7.67 7.99 7.34 8.98 7 10 C5.83043409 8.52312468 4.66441854 7.04343707 3.5 5.5625 C2.8503125 4.73878906 2.200625 3.91507813 1.53125 3.06640625 C0 1 0 1 0 0 Z " fill="#D1F6C4" transform="translate(422,203)"/>
<path d="M0 0 C2.96404505 2.80804268 5.44499019 5.18315774 7 9 C5.1875 8.8125 5.1875 8.8125 3 8 C0.85802506 5.09303401 0 3.64478912 0 0 Z " fill="#D6F6CA" transform="translate(429,189)"/>
<path d="M0 0 C2.64 0.66 5.28 1.32 8 2 C5.77810176 4.22189824 3.91517292 4.92598892 1 6 C0.4465236 3.92446352 0 2.15634036 0 0 Z " fill="#ECFEE1" transform="translate(86,166)"/>
<path d="M0 0 C0 1.98 0 3.96 0 6 C-1.32 5.67 -2.64 5.34 -4 5 C-4.33 3.68 -4.66 2.36 -5 1 C-1.125 0 -1.125 0 0 0 Z " fill="#D1F0B2" transform="translate(530,164)"/>
<path d="M0 0 C1.98 0.99 1.98 0.99 4 2 C4 2.66 4 3.32 4 4 C4.66 4 5.32 4 6 4 C6.33 5.65 6.66 7.3 7 9 C6.34 8.67 5.68 8.34 5 8 C5 7.34 5 6.68 5 6 C4.01 5.67 3.02 5.34 2 5 C0.8125 2.4375 0.8125 2.4375 0 0 Z " fill="#CFF1C4" transform="translate(443,229)"/>
<path d="M0 0 C0.99 0.33 1.98 0.66 3 1 C2.319375 1.556875 2.319375 1.556875 1.625 2.125 C-0.47029394 4.54264685 -1.12013285 6.95430602 -2 10 C-2.33 10 -2.66 10 -3 10 C-3.36923077 4.58461538 -3.36923077 4.58461538 -1.5 1.625 C-1.005 1.08875 -0.51 0.5525 0 0 Z " fill="#F2FFE6" transform="translate(82,172)"/>
<path d="M0 0 C1.98 0.99 3.96 1.98 6 3 C6 4.98 6 6.96 6 9 C5.34 9 4.68 9 4 9 C3.71125 8.030625 3.4225 7.06125 3.125 6.0625 C2.35785318 2.89335797 2.35785318 2.89335797 0 2 C0 1.34 0 0.68 0 0 Z " fill="#D6FAC8" transform="translate(315,155)"/>
<path d="M0 0 C0.99 0.33 1.98 0.66 3 1 C4.125 5.75 4.125 5.75 3 8 C2.34 8 1.68 8 1 8 C0.67 5.36 0.34 2.72 0 0 Z " fill="#F0FFED" transform="translate(229,284)"/>
<path d="M0 0 C2.475 0.99 2.475 0.99 5 2 C4.67 3.32 4.34 4.64 4 6 C2.02 6 0.04 6 -2 6 C-0.68 5.67 0.64 5.34 2 5 C2 4.01 2 3.02 2 2 C1.34 2 0.68 2 0 2 C0 1.34 0 0.68 0 0 Z " fill="#C7E9A8" transform="translate(260,234)"/>
<path d="M0 0 C2 2 2 2 2.125 5.125 C2.08375 6.07375 2.0425 7.0225 2 8 C1.01 8.495 1.01 8.495 0 9 C-0.87890625 2.84765625 -0.87890625 2.84765625 -1 1 C-0.67 0.67 -0.34 0.34 0 0 Z " fill="#DDFED4" transform="translate(453,208)"/>
<path d="M0 0 C2.96404505 2.80804268 5.44499019 5.18315774 7 9 C1.21538462 5.67692308 1.21538462 5.67692308 0.125 2.25 C0.08375 1.5075 0.0425 0.765 0 0 Z " fill="#CEF0C2" transform="translate(417,174)"/>
<path d="M0 0 C0.66 0.33 1.32 0.66 2 1 C0.68 2.32 -0.64 3.64 -2 5 C-3.32 4.34 -4.64 3.68 -6 3 C-4.03533587 1.93224776 -2.03144641 0.93446535 0 0 Z " fill="#DDFDD5" transform="translate(62,167)"/>
<path d="M0 0 C3.3 0.99 6.6 1.98 10 3 C9.67 3.66 9.34 4.32 9 5 C5.625 4.75 5.625 4.75 2 4 C1.34 2.68 0.68 1.36 0 0 Z " fill="#D1EEA8" transform="translate(281,154)"/>
<path d="M0 0 C2.00047023 2.54605302 3.82572785 4.9664636 5 8 C4.67 8.99 4.34 9.98 4 11 C1.17438373 7.20307814 -0.56638908 4.81430721 0 0 Z " fill="#C7F1BB" transform="translate(297,217)"/>
<path d="M0 0 C0.33 0.66 0.66 1.32 1 2 C0.01 3.32 -0.98 4.64 -2 6 C-4.97 5.505 -4.97 5.505 -8 5 C-7.4225 4.731875 -6.845 4.46375 -6.25 4.1875 C-3.9674132 2.98280141 -2.0262058 1.59201885 0 0 Z " fill="#CBF2BB" transform="translate(280,187)"/>
<path d="M0 0 C1.98 0.495 1.98 0.495 4 1 C2.70700306 3.88437779 1.34058637 5.87219421 -1 8 C-1 6.68 -1 5.36 -1 4 C-0.34 4 0.32 4 1 4 C0.67 2.68 0.34 1.36 0 0 Z " fill="#B76319" transform="translate(557,153)"/>
<path d="M0 0 C2.0625 1.75 2.0625 1.75 4 4 C3.75 6.25 3.75 6.25 3 8 C3 7.34 3 6.68 3 6 C2.34 6 1.68 6 1 6 C0.67 4.02 0.34 2.04 0 0 Z " fill="#D9FFCF" transform="translate(124,273)"/>
<path d="M0 0 C0.66 0 1.32 0 2 0 C2.33 2.31 2.66 4.62 3 7 C2.01 6.67 1.02 6.34 0 6 C0 4.02 0 2.04 0 0 Z " fill="#D9F4BF" transform="translate(503,229)"/>
<path d="M0 0 C3 1 3 1 4.25 3.375 C5 6 5 6 4 9 C0 2.25 0 2.25 0 0 Z " fill="#E2FBB1" transform="translate(293,160)"/>
<path d="M0 0 C1.32 0.66 2.64 1.32 4 2 C2.02 4.97 2.02 4.97 0 8 C-0.33 7.01 -0.66 6.02 -1 5 C-0.34 5 0.32 5 1 5 C0.67 3.35 0.34 1.7 0 0 Z " fill="#D8F0C3" transform="translate(467,161)"/>
<path d="M0 0 C0 0.66 0 1.32 0 2 C-3.465 3.485 -3.465 3.485 -7 5 C-7.66 4.34 -8.32 3.68 -9 3 C-2.25 0 -2.25 0 0 0 Z " fill="#E7FEDD" transform="translate(84,158)"/>
<path d="M0 0 C2.475 0.99 2.475 0.99 5 2 C5 3.32 5 4.64 5 6 C3.0625 5.25 3.0625 5.25 1 4 C0.25 1.875 0.25 1.875 0 0 Z " fill="#DBF2CE" transform="translate(387,154)"/>
</svg>
