<?xml version="1.0" encoding="UTF-8"?>
<svg version="1.1" xmlns="http://www.w3.org/2000/svg" width="500" height="500">
<path d="M0 0 C165 0 330 0 500 0 C500 165 500 330 500 500 C335 500 170 500 0 500 C0 335 0 170 0 0 Z " fill="#FDFDFD" transform="translate(0,0)"/>
<path d="M0 0 C0.99 0 1.98 0 3 0 C3 66.33 3 132.66 3 201 C2.01 200.67 1.02 200.34 0 200 C0 171.29 0 142.58 0 113 C0.66 113 1.32 113 2 113 C2 112.01 2 111.02 2 110 C1.34 110 0.68 110 0 110 C0 90.2 0 70.4 0 50 C0.66 50 1.32 50 2 50 C1.85950482 48.52031676 1.71245174 47.04125484 1.5625 45.5625 C1.44068359 44.32693359 1.44068359 44.32693359 1.31640625 43.06640625 C1.21069185 41.01337975 1.21069185 41.01337975 0 40 C-0.08868299 37.04294679 -0.11520296 34.10934944 -0.09765625 31.15234375 C-0.0962413 30.2659169 -0.09482635 29.37949005 -0.09336853 28.46620178 C-0.08775215 25.62326746 -0.07519691 22.78041069 -0.0625 19.9375 C-0.05748711 18.01497509 -0.05292384 16.09244896 -0.04882812 14.16992188 C-0.03777741 9.44658451 -0.02050183 4.72330542 0 0 Z " fill="#DDDDDD" transform="translate(220,153)"/>
<path d="M0 0 C0.99 0 1.98 0 3 0 C3 9.9 3 19.8 3 30 C2.01 29.67 1.02 29.34 0 29 C0 19.33333333 0 9.66666667 0 0 Z " fill="#E1E1E1" transform="translate(323,294)"/>
<path d="M0 0 C3.3 0 6.6 0 10 0 C10 0.99 10 1.98 10 3 C6.7 3.33 3.4 3.66 0 4 C0 2.68 0 1.36 0 0 Z " fill="#DEDEDE" transform="translate(234,350)"/>
</svg>
