<?xml version="1.0" encoding="UTF-8"?>
<svg version="1.1" xmlns="http://www.w3.org/2000/svg" width="500" height="500">
<path d="M0 0 C1.27838536 0.66021384 2.54776793 1.33809079 3.80859375 2.03125 C4.48752686 2.38856201 5.16645996 2.74587402 5.8659668 3.11401367 C7.28350102 3.86247043 8.69731223 4.61801843 10.10742188 5.38037109 C12.2308078 6.5230242 14.36800131 7.63431616 16.51171875 8.73828125 C17.86110636 9.43927844 19.21008087 10.14107154 20.55859375 10.84375 C21.18644775 11.16859375 21.81430176 11.4934375 22.46118164 11.828125 C28.33782014 14.94809169 28.33782014 14.94809169 30.24609375 17.53125 C30.61358643 20.50238037 30.61358643 20.50238037 30.60253906 24.18652344 C30.60458344 24.85846741 30.60662781 25.53041138 30.60873413 26.22271729 C30.61174355 28.44562955 30.59325316 30.66780073 30.57421875 32.890625 C30.57115972 34.43898332 30.56928469 35.9873444 30.56854248 37.53570557 C30.56393754 40.78400175 30.54951046 44.0320503 30.52734375 47.28027344 C30.49915571 51.43060761 30.48814144 55.58074605 30.48366165 59.73116684 C30.47848492 63.7010111 30.46394641 67.67080688 30.44921875 71.640625 C30.44733803 72.39252861 30.44545731 73.14443222 30.44351959 73.91912079 C30.43658866 76.06561209 30.42292261 78.21195542 30.40722656 80.35839844 C30.39698456 82.18682281 30.39698456 82.18682281 30.38653564 84.05218506 C30.24309296 87.60558628 29.79407596 91.0197515 29.24609375 94.53125 C29.16548742 95.92284981 29.11572981 97.31700729 29.11328125 98.7109375 C29.11070312 99.4630249 29.108125 100.2151123 29.10546875 100.98999023 C29.12816619 104.49993679 29.16579672 108.00940577 29.21777344 111.51904297 C29.24819303 114.75453423 29.21834157 117.98716748 29.19140625 121.22265625 C29.20724455 123.47137228 29.22543962 125.72007305 29.24609375 127.96875 C29.22659668 129.04044434 29.20709961 130.11213867 29.18701172 131.21630859 C29.18105522 136.61119107 29.18105522 136.61119107 31.68286133 141.16430664 C33.80351088 142.55394264 35.91296685 143.53800455 38.24609375 144.53125 C40.12513561 145.44894113 42.00403381 146.36692646 43.8828125 147.28515625 C46.9240442 148.70571855 49.97181469 150.11132535 53.02148438 151.51367188 C65.04964422 157.13835094 65.04964422 157.13835094 67.24609375 161.53125 C67.39177024 162.91073424 67.48209516 164.29629974 67.54272461 165.68212891 C67.6012838 166.97284805 67.6012838 166.97284805 67.661026 168.28964233 C67.6981218 169.22788849 67.73521759 170.16613464 67.7734375 171.1328125 C67.81476303 172.10997223 67.85608856 173.08713196 67.89866638 174.09390259 C68.35404563 185.36103063 68.58836901 196.63254113 68.80859375 207.90625 C68.85196415 210.02214054 68.89558294 212.13802601 68.93945312 214.25390625 C69.04451262 219.34630056 69.14627228 224.43875043 69.24609375 229.53125 C73.20609375 229.53125 77.16609375 229.53125 81.24609375 229.53125 C81.24609375 227.88125 81.24609375 226.23125 81.24609375 224.53125 C79.82296875 224.098125 79.82296875 224.098125 78.37109375 223.65625 C75.24609375 222.53125 75.24609375 222.53125 73.24609375 220.53125 C71.14757808 212.97954925 72.66339908 206.35441179 76.24609375 199.53125 C78.4269357 196.56530494 80.70720547 194.19526928 84.15625 192.70703125 C87.99537068 192.38411456 90.22877171 194.96422962 93.04296875 197.3125 C97.25437144 201.55377079 100.25585342 206.13000585 100.23828125 212.25390625 C99.59746245 216.20950593 98.73707691 218.88188517 96.30859375 222.09375 C94.24609375 223.53125 94.24609375 223.53125 91.24609375 224.53125 C90.51274946 228.50879128 90.51274946 228.50879128 90.24609375 232.53125 C91.23609375 232.20125 92.22609375 231.87125 93.24609375 231.53125 C99.15338103 231.13248492 104.77647055 231.00680852 110.24609375 233.53125 C112.24609375 235.53125 112.24609375 235.53125 112.68359375 237.90625 C112.24609375 240.53125 112.24609375 240.53125 110.30470276 242.66356659 C106.08338119 245.24123907 102.72742979 245.08816556 97.87084961 245.03918457 C96.92272117 245.04542453 95.97459272 245.0516645 94.99773312 245.05809355 C91.81854879 245.07405701 88.64012761 245.06140588 85.4609375 245.04882812 C83.18262281 245.05424773 80.90431161 245.06136948 78.62600708 245.07006836 C72.43599502 245.08832361 66.24624925 245.08122492 60.05623245 245.06855202 C53.58297245 245.05843584 47.10973549 245.06781385 40.63647461 245.07409668 C29.06843409 245.08184364 17.50052991 245.06940095 5.93251073 245.04905933 C-4.55514409 245.03118838 -15.04262181 245.03429251 -25.53027344 245.05273438 C-37.71061113 245.0741427 -49.89080982 245.08210735 -62.07116985 245.07028532 C-68.51836589 245.0640442 -74.96543994 245.06323186 -81.41262817 245.07643127 C-87.47344247 245.08797257 -93.53392181 245.07999512 -99.59469986 245.05685425 C-101.82115243 245.05155801 -104.04763311 245.05309649 -106.27407455 245.06190491 C-109.30931969 245.07280748 -112.34348604 245.05916012 -115.37866211 245.03918457 C-116.26338731 245.04810746 -117.14811251 245.05703034 -118.05964756 245.06622362 C-122.26272571 245.01243072 -124.23702157 244.87155927 -127.83985901 242.49950409 C-128.78731239 241.52521832 -128.78731239 241.52521832 -129.75390625 240.53125 C-129.54960789 236.8538795 -128.97458614 235.73040015 -126.19140625 233.21875 C-121.91699701 231.12040364 -119.44980755 231.20739474 -114.75390625 231.53125 C-114.25890625 230.54125 -114.25890625 230.54125 -113.75390625 229.53125 C-114.25921875 229.03496094 -114.76453125 228.53867187 -115.28515625 228.02734375 C-120.56990796 222.50142282 -120.56990796 222.50142282 -121.44140625 217.90625 C-120.20970126 211.85969821 -116.4965703 207.37054947 -111.75390625 203.53125 C-108.20485321 202.87938312 -106.58783498 202.98323969 -103.56640625 204.96875 C-100.38367933 209.46846737 -98.75390625 214.19690401 -98.75390625 219.71875 C-100.08589257 223.46496151 -102.11295001 225.56017423 -104.75390625 228.53125 C-105.08390625 229.52125 -105.41390625 230.51125 -105.75390625 231.53125 C-103.11390625 231.86125 -100.47390625 232.19125 -97.75390625 232.53125 C-97.75612686 231.73883408 -97.75834747 230.94641815 -97.76063538 230.12998962 C-97.8212952 207.38519013 -97.82085727 184.64085048 -97.75985718 161.8960495 C-97.75410914 159.6118732 -97.7495516 157.3276977 -97.74536133 155.04351807 C-97.72956624 147.13953574 -97.68736514 139.23664034 -97.60031128 131.33303833 C-97.57777926 128.97265168 -97.56382866 126.61216692 -97.55862427 124.25167847 C-97.54953897 120.99516567 -97.5095155 117.74050404 -97.4609375 114.484375 C-97.46682892 113.0660009 -97.46682892 113.0660009 -97.47283936 111.61897278 C-97.37233154 107.17753262 -97.235967 105.16009866 -94.46484375 101.54516602 C-92.20860362 99.86903806 -90.22329771 98.50116249 -87.671875 97.35546875 C-86.91237549 97.00637451 -86.15287598 96.65728027 -85.37036133 96.29760742 C-84.56880615 95.94158447 -83.76725098 95.58556152 -82.94140625 95.21875 C-81.24018865 94.43901842 -79.53967908 93.65774038 -77.83984375 92.875 C-76.98874023 92.48570312 -76.13763672 92.09640625 -75.26074219 91.6953125 C-71.49118129 89.944897 -67.77660603 88.09102468 -64.06640625 86.21875 C-63.13380981 85.74924927 -63.13380981 85.74924927 -62.18237305 85.27026367 C-60.9842556 84.66645116 -59.79002851 84.0548485 -58.60009766 83.43505859 C-56.75390625 82.53125 -56.75390625 82.53125 -54.59130859 81.69384766 C-53.87539551 81.39913574 -53.15948242 81.10442383 -52.421875 80.80078125 C-51.76856201 80.55561768 -51.11524902 80.3104541 -50.44213867 80.05786133 C-47.00096715 76.94612662 -46.85272745 72.15454725 -46.5849762 67.75630188 C-46.50972058 64.52860871 -46.50378573 61.30665486 -46.515625 58.078125 C-46.50021988 55.66145262 -46.48391734 53.24478583 -46.46679688 50.828125 C-46.4502828 47.04023876 -46.4414591 43.25276341 -46.44848633 39.46484375 C-46.4510963 35.79380103 -46.42307622 32.12400192 -46.390625 28.453125 C-46.40083176 27.3176825 -46.41103851 26.18223999 -46.42155457 25.01239014 C-46.32378473 17.19095236 -46.32378473 17.19095236 -43.51416016 13.93847656 C-42.60327637 13.4740918 -41.69239258 13.00970703 -40.75390625 12.53125 C-39.97233154 12.09941406 -39.19075684 11.66757813 -38.38549805 11.22265625 C-37.58281494 10.85011719 -36.78013184 10.47757813 -35.953125 10.09375 C-35.05787109 9.67351562 -34.16261719 9.25328125 -33.24023438 8.8203125 C-32.31662109 8.39492187 -31.39300781 7.96953125 -30.44140625 7.53125 C-28.61164766 6.6777937 -26.78221567 5.82363682 -24.953125 4.96875 C-23.62547119 4.35773438 -23.62547119 4.35773438 -22.27099609 3.734375 C-19.98640317 2.64237947 -17.79869287 1.44703737 -15.5859375 0.21875 C-10.23651912 -2.44645997 -5.44380176 -2.42642903 0 0 Z M-18.328125 13.8203125 C-20.57912634 14.94452981 -22.85289463 16.02446688 -25.1484375 17.0546875 C-26.74751953 17.78558594 -26.74751953 17.78558594 -28.37890625 18.53125 C-29.36117187 18.964375 -30.3434375 19.3975 -31.35546875 19.84375 C-34.54483963 22.08773733 -34.78227651 23.78738455 -35.75390625 27.53125 C-36.04896854 30.93002194 -36.04896854 30.93002194 -36.00114441 34.58068848 C-36.00355882 35.26701906 -36.00597324 35.95334964 -36.00846082 36.66047812 C-36.0140733 38.94888062 -36.00545242 41.23700088 -35.99682617 43.52539062 C-35.99789991 45.1721606 -35.99983994 46.8189302 -36.00257874 48.46569824 C-36.00742476 52.93832632 -35.99976701 57.41085451 -35.98962569 61.88347054 C-35.98080501 66.59398397 -35.98260366 71.30449463 -35.98298645 76.01501465 C-35.98204929 83.95078177 -35.97337122 91.88651073 -35.9597168 99.82226562 C-35.94412076 108.91835202 -35.93871425 118.01439627 -35.93945235 127.11049509 C-35.94013649 136.86736568 -35.93313331 146.62422058 -35.92400575 156.38108635 C-35.92190316 159.15040525 -35.92116847 161.91972152 -35.92076683 164.68904114 C-35.91593682 181.44085379 -35.89883401 198.1936397 -35.42421782 214.93996716 C-35.36989986 216.87460603 -35.32327417 218.80945607 -35.27686596 220.74430084 C-35.23898118 221.88196648 -35.2010964 223.01963211 -35.1620636 224.19177246 C-35.13171178 225.18135704 -35.10135996 226.17094162 -35.07008839 227.19051361 C-34.96916665 229.72004813 -34.96916665 229.72004813 -32.75390625 231.53125 C-30.15110057 231.21083603 -30.15110057 231.21083603 -27.75390625 230.53125 C-26.76390625 227.56125 -25.77390625 224.59125 -24.75390625 221.53125 C-21.45390625 221.53125 -18.15390625 221.53125 -14.75390625 221.53125 C-13.26250604 225.15322194 -11.96648005 228.80691618 -10.75390625 232.53125 C-9.76390625 232.53125 -8.77390625 232.53125 -7.75390625 232.53125 C-7.51607422 231.42716797 -7.51607422 231.42716797 -7.2734375 230.30078125 C-5.82488684 224.24247822 -4.71281916 220.41796553 0.24609375 216.53125 C-2.42638259 214.18837582 -2.42638259 214.18837582 -5.75390625 213.53125 C-5.61353104 211.71831911 -5.46645736 209.9059057 -5.31640625 208.09375 C-5.23519531 207.08441406 -5.15398437 206.07507813 -5.0703125 205.03515625 C-4.75390625 202.53125 -4.75390625 202.53125 -3.75390625 201.53125 C-1.94362125 201.43245435 -0.12937898 201.40153486 1.68359375 201.40625 C2.67230469 201.40367187 3.66101563 201.40109375 4.6796875 201.3984375 C7.24609375 201.53125 7.24609375 201.53125 9.24609375 202.53125 C9.24609375 211.44125 9.24609375 220.35125 9.24609375 229.53125 C10.89609375 230.19125 12.54609375 230.85125 14.24609375 231.53125 C15.23609375 230.87125 16.22609375 230.21125 17.24609375 229.53125 C17.53787898 226.90939905 17.63489749 224.5238106 17.60253906 221.90039062 C17.60458344 221.11327194 17.60662781 220.32615326 17.60873413 219.5151825 C17.61174944 216.90572094 17.59324286 214.29688676 17.57421875 211.6875 C17.57116229 209.87911129 17.56928531 208.07072024 17.56854248 206.2623291 C17.56393469 202.46922826 17.54949079 198.67633917 17.52734375 194.88330078 C17.49906101 190.01388768 17.48813278 185.14464154 17.48366165 180.27515411 C17.47951037 176.54004231 17.46969533 172.80496448 17.45778656 169.06987 C17.45207715 167.27406589 17.44732067 165.4782585 17.44351959 163.68244934 C17.43666657 161.1756106 17.42303867 158.66890559 17.40722656 156.16210938 C17.4061087 155.4150322 17.40499084 154.66795502 17.40383911 153.89823914 C17.43556417 150.08826341 17.43556417 150.08826341 16.24609375 146.53125 C6.47519308 147.81095194 -3.11324448 149.50590089 -12.75390625 151.53125 C-12.75390625 152.19125 -12.75390625 152.85125 -12.75390625 153.53125 C-17.73674341 154.67176606 -22.69858757 155.75350866 -27.75390625 156.53125 C-27.42390625 153.56125 -27.09390625 150.59125 -26.75390625 147.53125 C-21.46908897 145.47604328 -16.27128616 143.81104146 -10.7578125 142.47265625 C-9.76587891 142.00666016 -9.76587891 142.00666016 -8.75390625 141.53125 C-7.74445107 138.63512289 -7.6217875 135.90448801 -7.60241699 132.85643005 C-7.5899015 131.45372864 -7.5899015 131.45372864 -7.57713318 130.02268982 C-7.57294876 129.00385208 -7.56876434 127.98501434 -7.56445312 126.93530273 C-7.55615982 125.85689117 -7.54786652 124.77847961 -7.5393219 123.66738892 C-7.52192708 121.32603355 -7.50675871 118.98466082 -7.49354553 116.64327812 C-7.4725228 112.94134343 -7.44550046 109.23949608 -7.41687012 105.53761292 C-7.35210111 97.01294324 -7.29624756 88.48822053 -7.24088287 79.96348572 C-7.18598894 71.52639369 -7.12731194 63.08934873 -7.06202698 54.6523304 C-7.03540502 50.99898293 -7.01462057 47.34563116 -6.99401855 43.69224548 C-6.97741952 41.46076241 -6.96054804 39.22928134 -6.94335938 36.99780273 C-6.93917496 35.97694077 -6.93499054 34.9560788 -6.93067932 33.90428162 C-6.91816383 32.50580994 -6.91816383 32.50580994 -6.90539551 31.0790863 C-6.90024178 30.26849479 -6.89508804 29.45790327 -6.88977814 28.62274837 C-6.75390625 26.53125 -6.75390625 26.53125 -5.75390625 23.53125 C-6.74390625 23.53125 -7.73390625 23.53125 -8.75390625 23.53125 C-8.75390625 18.91125 -8.75390625 14.29125 -8.75390625 9.53125 C-11.83299941 9.53125 -15.65309784 12.4555681 -18.328125 13.8203125 Z M-55.50390625 94.78125 C-58.32898778 96.69108976 -60.94865779 98.01025559 -64.12890625 99.21875 C-66.17475142 100.07115784 -66.17475142 100.07115784 -67.75390625 101.53125 C-68.6334963 104.15721057 -68.99422204 106.53072779 -69.20703125 109.2890625 C-69.75390625 111.53125 -69.75390625 111.53125 -71.66796875 112.83984375 C-74.23751216 113.69154634 -75.32407215 113.74616705 -77.75390625 112.53125 C-79.00390625 109.96875 -79.00390625 109.96875 -79.75390625 107.53125 C-81.73882267 107.79801204 -81.73882267 107.79801204 -83.75390625 108.53125 C-84.73756503 111.48222635 -84.86753276 113.33129968 -84.84292603 116.40298462 C-84.8373317 117.40694778 -84.83173737 118.41091095 -84.82597351 119.44529724 C-84.81459854 120.54567825 -84.80322357 121.64605927 -84.79150391 122.77978516 C-84.78350266 123.93929184 -84.7755014 125.09879852 -84.76725769 126.29344177 C-84.73931904 130.13579137 -84.70386729 133.97802961 -84.66796875 137.8203125 C-84.64620952 140.48163665 -84.62475627 143.14296185 -84.60360718 145.80429077 C-84.55842588 151.38453745 -84.50894362 156.96473404 -84.45703125 162.54492188 C-84.39700496 169.00407536 -84.34424689 175.46325812 -84.29526293 181.92250407 C-84.25306223 187.46311986 -84.20701043 193.00369376 -84.15769804 198.54425085 C-84.12822462 201.85578966 -84.10047456 205.16732538 -84.07539749 208.47890091 C-84.04675532 212.16649748 -84.01180022 215.85397997 -83.97509766 219.54150391 C-83.96410789 221.19814812 -83.96410789 221.19814812 -83.95289612 222.88825989 C-83.94166214 223.8865834 -83.93042816 224.88490692 -83.91885376 225.91348267 C-83.91110239 226.78621134 -83.90335102 227.65894001 -83.89536476 228.55811501 C-83.9701845 230.53321584 -83.9701845 230.53321584 -82.75390625 231.53125 C-80.24308964 231.63485166 -77.76490905 231.66963012 -75.25390625 231.65625 C-74.25810547 231.66205078 -74.25810547 231.66205078 -73.2421875 231.66796875 C-65.04066979 231.65302974 -56.97632171 231.0149215 -48.75390625 230.53125 C-48.42390625 184.99125 -48.09390625 139.45125 -47.75390625 92.53125 C-51.80219018 92.53125 -52.40793823 92.65756946 -55.50390625 94.78125 Z " fill="#EBEBEB" transform="translate(258.75390625,128.46875)"/>
<path d="M0 0 C0.99 0.495 0.99 0.495 2 1 C2.13172854 19.37025053 2.26216786 37.74050976 2.39115143 56.11077976 C2.45109526 64.6440886 2.51143104 73.17739431 2.57275391 81.71069336 C2.62632138 89.16494924 2.67908796 96.61921033 2.73096704 104.07347816 C2.75835722 108.00530948 2.78609771 111.93713748 2.81480408 115.86895943 C2.8827889 125.20955268 2.94240473 134.55014272 2.98909378 143.89086771 C3.0002316 146.0447883 3.01268038 148.19869881 3.02523804 150.35261154 C3.04532152 153.91101596 3.05943491 157.46940241 3.06938839 161.02784908 C3.07592992 162.97462503 3.08740409 164.92138249 3.09906769 166.8681345 C3.1256488 182.08951343 3.1256488 182.08951343 2 187 C1.34 187.33 0.68 187.66 0 188 C0 125.96 0 63.92 0 0 Z " fill="#CAC9CA" transform="translate(221,158)"/>
<path d="M0 0 C0.99 0.33 1.98 0.66 3 1 C3.0462815 9.96192395 3.0818478 18.92380695 3.10362434 27.8858242 C3.11407446 32.04697253 3.12825592 36.20803926 3.15087891 40.36914062 C3.17256371 44.38266429 3.18455937 48.39610933 3.18975449 52.40968704 C3.19345811 53.94314436 3.20069011 55.47659724 3.21146011 57.01002121 C3.22591729 59.15309801 3.2279804 61.29584736 3.22705078 63.43896484 C3.231492 64.66030121 3.23593323 65.88163757 3.24050903 67.13998413 C3 70 3 70 1 72 C-0.26877238 69.46245524 -0.12942161 67.67411571 -0.1328125 64.8359375 C-0.13410156 63.79566406 -0.13539063 62.75539062 -0.13671875 61.68359375 C-0.13091797 60.04583984 -0.13091797 60.04583984 -0.125 58.375 C-0.12886719 57.30636719 -0.13273437 56.23773438 -0.13671875 55.13671875 C-0.13542969 54.08871094 -0.13414062 53.04070312 -0.1328125 51.9609375 C-0.13168457 51.01009277 -0.13055664 50.05924805 -0.12939453 49.07958984 C0 46 0 46 0.51586914 42.19580078 C1.1063067 37.73774634 1.03245571 33.39267421 0.87890625 28.90625 C0.85529526 28.07411987 0.83168427 27.24198975 0.80735779 26.38464355 C0.73147375 23.75622199 0.64713135 21.12815296 0.5625 18.5 C0.50920372 16.70574577 0.456464 14.91147492 0.40429688 13.1171875 C0.27596208 8.74457322 0.14004678 4.3722542 0 0 Z " fill="#D4D2D4" transform="translate(286,146)"/>
<path d="M0 0 C0.33 0 0.66 0 1 0 C1.33 26.07 1.66 52.14 2 79 C2.33 75.7 2.66 72.4 3 69 C3.33 69 3.66 69 4 69 C4 75.27 4 81.54 4 88 C2.68 87.67 1.36 87.34 0 87 C0 58.29 0 29.58 0 0 Z " fill="#E0DEDF" transform="translate(220,266)"/>
<path d="M0 0 C0.33 0 0.66 0 1 0 C0.98259766 1.0058313 0.98259766 1.0058313 0.96484375 2.03198242 C0.93527681 5.08503283 0.96703431 8.13451081 1 11.1875 C0.98066406 12.24259766 0.96132813 13.29769531 0.94140625 14.38476562 C0.91721768 19.97214055 0.91721768 19.97214055 3.49609375 24.68481445 C5.60279623 26.04415681 7.69015289 27.02624558 10 28 C11.64657622 28.81751586 13.29239164 29.63656559 14.9375 30.45703125 C16.62259813 31.24732921 18.31012907 32.03245973 20 32.8125 C20.87011719 33.21919922 21.74023438 33.62589844 22.63671875 34.04492188 C24.75571658 35.03456372 26.87676973 36.01948047 29 37 C29 37.99 29 38.98 29 40 C28.01 40 27.02 40 26 40 C26 39.34 26 38.68 26 38 C25.484375 37.896875 24.96875 37.79375 24.4375 37.6875 C21.13973565 36.75736134 18.13366668 35.38604488 15 34 C15 33.34 15 32.68 15 32 C13.02 32.495 13.02 32.495 11 33 C11 32.34 11 31.68 11 31 C9.35 30.67 7.7 30.34 6 30 C6 29.34 6 28.68 6 28 C5.360625 27.896875 4.72125 27.79375 4.0625 27.6875 C3.381875 27.460625 2.70125 27.23375 2 27 C1.67 26.01 1.34 25.02 1 24 C0.34 24 -0.32 24 -1 24 C-1.02887236 20.18751574 -1.04675492 16.3750593 -1.0625 12.5625 C-1.07087891 11.47388672 -1.07925781 10.38527344 -1.08789062 9.26367188 C-1.09111328 8.22919922 -1.09433594 7.19472656 -1.09765625 6.12890625 C-1.10289307 5.17056885 -1.10812988 4.21223145 -1.11352539 3.22485352 C-1 1 -1 1 0 0 Z " fill="#C7C4C5" transform="translate(287,245)"/>
<path d="M0 0 C4.30473542 0.47830394 6.34410613 2.72232314 9 6 C9.43948867 8.85601476 9.59019987 11.09053457 9.48828125 13.92578125 C9.47766914 15.04716743 9.47766914 15.04716743 9.46684265 16.19120789 C9.43897645 18.56601402 9.37626132 20.93841351 9.3125 23.3125 C9.28740668 24.92770018 9.26459531 26.54293754 9.24414062 28.15820312 C9.18917647 32.10638819 9.10296527 36.05278689 9 40 C8.34 40 7.68 40 7 40 C6.99589111 38.98574951 6.99178223 37.97149902 6.98754883 36.92651367 C6.96577624 33.16330142 6.91150827 29.4011376 6.84741211 25.63842773 C6.82421533 24.00994923 6.8098324 22.38132034 6.80444336 20.75268555 C6.79516508 18.41099159 6.75420744 16.07166792 6.70703125 13.73046875 C6.7109639 13.00224411 6.71489655 12.27401947 6.71894836 11.52372742 C6.70681523 9.21234082 6.70681523 9.21234082 6 6 C3.60195823 4.1518795 3.60195823 4.1518795 1 3 C0.67 2.01 0.34 1.02 0 0 Z " fill="#C4C2C2" transform="translate(317,284)"/>
<path d="M0 0 C0.66 0 1.32 0 2 0 C2.81096293 2.83837026 3.06048576 4.7177331 2.4375 7.625 C1 10 1 10 -2 11.25 C-5.12965222 12.65576087 -5.12965222 12.65576087 -5.8359375 15.18359375 C-6.32466174 17.45368243 -6.71977682 19.69540588 -7 22 C-7.78375 21.505 -8.5675 21.01 -9.375 20.5 C-11.78552327 18.83462035 -11.78552327 18.83462035 -14 19 C-14 16.69 -14 14.38 -14 12 C-12.68 12.99 -11.36 13.98 -10 15 C-9.731875 14.38125 -9.46375 13.7625 -9.1875 13.125 C-8 11 -8 11 -5 9 C-4.01 9 -3.02 9 -2 9 C-1.34 6.03 -0.68 3.06 0 0 Z " fill="#DDDBDC" transform="translate(355,340)"/>
<path d="M0 0 C0.05784708 4.12494151 0.09354407 8.24977944 0.125 12.375 C0.14175781 13.550625 0.15851563 14.72625 0.17578125 15.9375 C0.18222656 17.05898437 0.18867188 18.18046875 0.1953125 19.3359375 C0.20578613 20.37282715 0.21625977 21.4097168 0.22705078 22.47802734 C0 25 0 25 -2 27 C-3.30475618 24.39048764 -3.11301572 22.47298715 -3.09765625 19.5546875 C-3.09443359 18.47832031 -3.09121094 17.40195313 -3.08789062 16.29296875 C-3.07951172 15.16503906 -3.07113281 14.03710938 -3.0625 12.875 C-3.05798828 11.73933594 -3.05347656 10.60367188 -3.04882812 9.43359375 C-3.03701615 6.62234362 -3.02054507 3.8111977 -3 1 C-1 0 -1 0 0 0 Z " fill="#C7C4C5" transform="translate(289,191)"/>
<path d="M0 0 C0.99 0 1.98 0 3 0 C2.67 2.31 2.34 4.62 2 7 C1.67 7 1.34 7 1 7 C0.67 18.55 0.34 30.1 0 42 C-0.33 42 -0.66 42 -1 42 C-1.02467467 36.34000977 -1.04284788 30.68005068 -1.05493164 25.02001953 C-1.05996787 23.09358169 -1.06679712 21.16714769 -1.07543945 19.24072266 C-1.08753608 16.47557632 -1.09323533 13.71048042 -1.09765625 10.9453125 C-1.10281754 10.0806839 -1.10797882 9.2160553 -1.11329651 8.32522583 C-1.11387171 2.22774341 -1.11387171 2.22774341 0 0 Z " fill="#E0E0E0" transform="translate(221,152)"/>
<path d="M0 0 C0 0.66 0 1.32 0 2 C0.66 2.33 1.32 2.66 2 3 C-1.49708982 3.70321915 -4.99533262 4.39799144 -8.5 5.0625 C-9.4178125 5.23910156 -10.335625 5.41570312 -11.28125 5.59765625 C-13.90095235 5.98534209 -16.35664329 6.07183035 -19 6 C-19.33 5.34 -19.66 4.68 -20 4 C-18.865625 3.855625 -17.73125 3.71125 -16.5625 3.5625 C-13.19222799 3.38828522 -13.19222799 3.38828522 -12 2 C-9.66055264 2.28730055 -7.3260857 2.61936779 -5 3 C-5 2.34 -5 1.68 -5 1 C-2 0 -2 0 0 0 Z " fill="#DFDDDE" transform="translate(275,272)"/>
<path d="M0 0 C2.875 -0.4375 2.875 -0.4375 6 0 C8.30275556 1.8670991 9.67823871 3.35647741 11 6 C11.039992 7.99960012 11.04346799 10.00047242 11 12 C9 9 9 9 9 6 C8.34 6 7.68 6 7 6 C6.54625 5.525625 6.0925 5.05125 5.625 4.5625 C3.77022513 2.77906263 2.49864408 2.4308007 0 2 C0 2.66 0 3.32 0 4 C-0.66 3.67 -1.32 3.34 -2 3 C-1.34 2.01 -0.68 1.02 0 0 Z " fill="#E3E2E2" transform="translate(147,332)"/>
<path d="M0 0 C0.33 0 0.66 0 1 0 C2.07275104 5.0419299 1.81675551 8.54374027 0.546875 13.51171875 C-0.42868855 17.95053292 -0.67853202 22.47406929 -1 27 C-1.33 27 -1.66 27 -2 27 C-2.05444001 23.99975053 -2.0938836 21.00050961 -2.125 18 C-2.14175781 17.16082031 -2.15851563 16.32164062 -2.17578125 15.45703125 C-2.21849117 9.94745123 -1.55502007 5.28951708 0 0 Z " fill="#E0DFDD" transform="translate(253,147)"/>
<path d="M0 0 C0.66 0 1.32 0 2 0 C3.4783226 2.95664519 3.06032783 5.74229737 3 9 C4.32 9.33 5.64 9.66 7 10 C6.67 10.66 6.34 11.32 6 12 C3.83125748 11.49396008 2.00032373 11.00016187 0 10 C0 6.7 0 3.4 0 0 Z " fill="#D3D3D3" transform="translate(253,332)"/>
<path d="M0 0 C3.3 0 6.6 0 10 0 C10.33 1.32 10.66 2.64 11 4 C7.37 4 3.74 4 0 4 C0 2.68 0 1.36 0 0 Z " fill="#D3D3D3" transform="translate(234,349)"/>
<path d="M0 0 C0.33 0 0.66 0 1 0 C1 6.27 1 12.54 1 19 C0.01 19 -0.98 19 -2 19 C-2.09765625 12.84765625 -2.09765625 12.84765625 -2 11 C-1.67 10.67 -1.34 10.34 -1 10 C-0.76712992 8.31816052 -0.58735834 6.6287584 -0.4375 4.9375 C-0.35371094 4.01839844 -0.26992187 3.09929687 -0.18359375 2.15234375 C-0.12300781 1.44207031 -0.06242188 0.73179687 0 0 Z " fill="#D6D5D5" transform="translate(223,335)"/>
<path d="M0 0 C0.66 0 1.32 0 2 0 C2.82592695 2.89074433 3.0444946 4.78247084 2.4375 7.75 C1 10 1 10 -2.125 10.8125 C-3.07375 10.874375 -4.0225 10.93625 -5 11 C-5 10.34 -5 9.68 -5 9 C-4.01 9 -3.02 9 -2 9 C-1.34 6.03 -0.68 3.06 0 0 Z " fill="#DAD8D9" transform="translate(355,340)"/>
<path d="M0 0 C-3.22791555 2.1519437 -4.28400809 2.20086443 -8 2 C-8 2.66 -8 3.32 -8 4 C-10.95664519 5.4783226 -13.74229737 5.06032783 -17 5 C-15 2 -15 2 -12.625 1.375 C-11.325625 1.189375 -11.325625 1.189375 -10 1 C-9.360625 0.814375 -8.72125 0.62875 -8.0625 0.4375 C-5.35333335 -0.13717171 -2.76027159 -0.06273345 0 0 Z " fill="#DFDDDE" transform="translate(254,278)"/>
<path d="M0 0 C0 0.66 0 1.32 0 2 C0.66 2 1.32 2 2 2 C2 3.65 2 5.3 2 7 C1.01 6.67 0.02 6.34 -1 6 C-1 5.01 -1 4.02 -1 3 C-1.61875 3.20625 -2.2375 3.4125 -2.875 3.625 C-3.57625 3.74875 -4.2775 3.8725 -5 4 C-5.66 3.34 -6.32 2.68 -7 2 C-4 0 -4 0 0 0 Z " fill="#DFDFDF" transform="translate(180,233)"/>
<path d="M0 0 C2 1 2 1 2 1 Z M0 1 C-0.33 1.99 -0.66 2.98 -1 4 C-2.32 4 -3.64 4 -5 4 C-5 4.66 -5 5.32 -5 6 C-6.32 6 -7.64 6 -9 6 C-9 5.01 -9 4.02 -9 3 C-5.86501708 1.14223235 -3.62528568 0.79859524 0 1 Z " fill="#E1E1E1" transform="translate(182,222)"/>
<path d="M0 0 C4.25219775 0.47246642 6.37314725 2.77272377 9 6 C8.8125 8.3125 8.8125 8.3125 8 10 C7.6596875 9.1028125 7.6596875 9.1028125 7.3125 8.1875 C5.66348536 5.43914226 3.72640732 4.60788124 1 3 C0.67 2.01 0.34 1.02 0 0 Z " fill="#D6D3D4" transform="translate(317,284)"/>
<path d="M0 0 C0 2.64 0 5.28 0 8 C-0.99 8 -1.98 8 -3 8 C-3 5.69 -3 3.38 -3 1 C-1 0 -1 0 0 0 Z " fill="#DFDEDF" transform="translate(141,342)"/>
<path d="M0 0 C0.33 0 0.66 0 1 0 C1 3.96 1 7.92 1 12 C0.01 11.34 -0.98 10.68 -2 10 C-2.1875 7.375 -2.1875 7.375 -2 5 C-1.34 5 -0.68 5 0 5 C0 3.35 0 1.7 0 0 Z " fill="#E0E0E0" transform="translate(215,190)"/>
<path d="M0 0 C1.32 0.66 2.64 1.32 4 2 C3.01 2.33 2.02 2.66 1 3 C-0.37195574 4.29355827 -1.71182656 5.62298702 -3 7 C-3.33 6.01 -3.66 5.02 -4 4 C-2.68 2.68 -1.36 1.36 0 0 Z " fill="#E3E2E2" transform="translate(349,350)"/>
<path d="M0 0 C3.87132028 0.57352893 6.08172796 2.48704352 9 5 C8.34 5.66 7.68 6.32 7 7 C7 6.34 7 5.68 7 5 C6.360625 4.896875 5.72125 4.79375 5.0625 4.6875 C4.381875 4.460625 3.70125 4.23375 3 4 C2.67 3.01 2.34 2.02 2 1 C1.34 0.67 0.68 0.34 0 0 Z " fill="#DFDEDF" transform="translate(286,268)"/>
<path d="M0 0 C0.99 0.33 1.98 0.66 3 1 C2.67 3.97 2.34 6.94 2 10 C1.67 10 1.34 10 1 10 C0.67 6.7 0.34 3.4 0 0 Z " fill="#CAC8C9" transform="translate(286,146)"/>
<path d="M0 0 C0.33 0 0.66 0 1 0 C1 2.31 1 4.62 1 7 C0.01 7 -0.98 7 -2 7 C-2.125 4.625 -2.125 4.625 -2 2 C-1.34 1.34 -0.68 0.68 0 0 Z " fill="#F4F4F9" transform="translate(252,145)"/>
<path d="M0 0 C3.125 -0.1875 3.125 -0.1875 6 0 C5.67 0.99 5.34 1.98 5 3 C3.35 2.67 1.7 2.34 0 2 C0 2.66 0 3.32 0 4 C-0.66 3.67 -1.32 3.34 -2 3 C-1.34 2.01 -0.68 1.02 0 0 Z " fill="#DBDBDB" transform="translate(147,332)"/>
<path d="M0 0 C1.98 0.66 3.96 1.32 6 2 C6 2.99 6 3.98 6 5 C5.01 5 4.02 5 3 5 C3 4.34 3 3.68 3 3 C1.68 2.67 0.36 2.34 -1 2 C-0.67 1.34 -0.34 0.68 0 0 Z " fill="#DCDBDB" transform="translate(310,280)"/>
<path d="M0 0 C0.66 0 1.32 0 2 0 C1.67 2.64 1.34 5.28 1 8 C0.34 8 -0.32 8 -1 8 C-1.04241723 5.66705225 -1.04092937 3.33297433 -1 1 C-0.67 0.67 -0.34 0.34 0 0 Z " fill="#BBBBBB" transform="translate(188,230)"/>
<path d="M0 0 C0.99 0 1.98 0 3 0 C2.67 2.31 2.34 4.62 2 7 C1.34 6.67 0.68 6.34 0 6 C0 4.02 0 2.04 0 0 Z " fill="#D8D8D8" transform="translate(221,152)"/>
</svg>
